<?xml version="1.0" encoding="UTF-8"?>
<svg version="1.1" xmlns="http://www.w3.org/2000/svg" width="512" height="512">
<path d="M0 0 C0.97485352 0.19867676 1.94970703 0.39735352 2.95410156 0.60205078 C19.45848828 4.05447263 36.01973347 8.60176118 51.61352539 15.08691406 C55.43068859 16.5473939 59.30694434 16.45656939 63.35546875 16.65625 C66 17 66 17 68 19 C68.12560303 19.65154053 68.25120605 20.30308105 68.38061523 20.97436523 C68.82278969 23.12580842 68.82278969 23.12580842 70.69555664 24.28930664 C71.42637451 24.65918701 72.15719238 25.02906738 72.91015625 25.41015625 C73.72726074 25.83683594 74.54436523 26.26351563 75.38623047 26.703125 C76.71098389 27.37601563 76.71098389 27.37601563 78.0625 28.0625 C101.50940612 40.46942055 121.20001536 57.17696902 139.9375 75.8125 C141.02091675 76.88878662 141.02091675 76.88878662 142.1262207 77.98681641 C145.16337343 81.03355453 148.01538573 83.9661297 150.5234375 87.46484375 C152.85986774 90.33461286 152.85986774 90.33461286 156.69921875 90.734375 C158.01535156 90.73953125 159.33148438 90.7446875 160.6875 90.75 C167.790628 90.790628 167.790628 90.790628 170 93 C170.17242012 95.68566257 170.23232278 98.2552106 170.1875 100.9375 C170.18685547 101.66646484 170.18621094 102.39542969 170.18554688 103.14648438 C170.15912584 106.34930071 170.01906863 108.9427941 169 112 C170.18830611 114.27274998 171.42525995 116.35302751 172.8125 118.5 C189.0858023 144.77379929 200.11051367 173.13824372 206.3125 203.4375 C206.45985596 204.15639404 206.60721191 204.87528809 206.7590332 205.6159668 C209.71015207 221.14262092 210.40707988 236.54313408 210.375 252.3125 C210.37418427 253.82677582 210.37418427 253.82677582 210.37335205 255.37164307 C210.33258601 271.88123539 209.42529309 287.79782001 206 304 C205.78037598 305.04188477 205.56075195 306.08376953 205.33447266 307.15722656 C195.23685215 353.45049311 172.87771242 395.86413721 140 430 C139.36787598 430.65935547 138.73575195 431.31871094 138.08447266 431.99804688 C128.94002521 441.48630305 119.64265991 450.2262044 109 458 C107.84894983 458.85806152 106.69790823 459.71613451 105.546875 460.57421875 C97.35724019 466.61177396 88.85461724 471.99457302 80 477 C79.29278809 477.4021875 78.58557617 477.804375 77.85693359 478.21875 C55.1876309 490.98176185 30.76301679 499.55570196 5.3125 504.75 C4.34006348 504.94883789 3.36762695 505.14767578 2.36572266 505.35253906 C-13.65741124 508.45550769 -29.33701201 509.37611746 -45.625 509.3125 C-47.07983292 509.30976578 -47.07983292 509.30976578 -48.5640564 509.30697632 C-62.91556055 509.26158309 -76.87942918 508.7562347 -91 506 C-91.89702637 505.83902832 -92.79405273 505.67805664 -93.71826172 505.51220703 C-137.32311969 497.62194853 -178.45990471 477.93235057 -212 449 C-212.74507813 448.36578125 -213.49015625 447.7315625 -214.2578125 447.078125 C-227.76279833 435.26698485 -240.43418743 422.51639772 -251 408 C-251.85649066 406.85005169 -252.71326433 405.70031411 -253.5703125 404.55078125 C-259.6109414 396.35910474 -264.97005071 387.84354922 -270 379 C-270.36448242 378.36819824 -270.72896484 377.73639648 -271.10449219 377.08544922 C-292.71035497 339.33716556 -302.4769659 296.57060585 -302.3125 253.375 C-302.31034485 252.35676147 -302.3081897 251.33852295 -302.30596924 250.28942871 C-302.25626609 235.6652116 -301.94207988 221.37195362 -299 207 C-298.70996094 205.50509033 -298.70996094 205.50509033 -298.4140625 203.97998047 C-292.24460335 172.75661431 -281.12024927 140.41959558 -262.37890625 114.3359375 C-261.92386719 113.56507812 -261.46882813 112.79421875 -261 112 C-261.33 111.01 -261.66 110.02 -262 109 C-262.12182523 106.30001293 -262.18511299 103.63721229 -262.1875 100.9375 C-262.19974609 100.20466797 -262.21199219 99.47183594 -262.22460938 98.71679688 C-262.22986299 96.80973493 -262.12218272 94.90315114 -262 93 C-260 91 -260 91 -256.83984375 90.9375 C-255.55207031 90.958125 -254.26429688 90.97875 -252.9375 91 C-248.77235668 90.88953057 -245.71648782 90.52284246 -242.25390625 87.99609375 C-239.99163479 85.42800396 -237.98016369 82.79004659 -236 80 C-234.83073775 78.60945801 -233.64435211 77.23304611 -232.4375 75.875 C-231.87417969 75.23175781 -231.31085938 74.58851562 -230.73046875 73.92578125 C-225.21577836 67.78866531 -219.26697856 62.42803884 -212.828125 57.2734375 C-211.02615055 55.82488898 -209.24248128 54.35305078 -207.484375 52.8515625 C-194.55811998 41.86821084 -180.01113241 32.84245309 -165 25 C-164.25540527 24.60603027 -163.51081055 24.21206055 -162.74365234 23.80615234 C-140.68725094 12.27760444 -116.44943457 4.49955302 -92 0 C-91.19933105 -0.16081055 -90.39866211 -0.32162109 -89.57373047 -0.48730469 C-61.57783464 -5.96341256 -27.91677188 -5.84707699 0 0 Z " fill="#FFC143" transform="translate(302,3)"/>
<path d="M0 0 C2.64 0 5.28 0 8 0 C8 93.72 8 187.44 8 284 C40.34 284 72.68 284 106 284 C106 286.97 106 289.94 106 293 C104.94039062 293.04898437 103.88078125 293.09796875 102.7890625 293.1484375 C101.40101503 293.22346709 100.01299549 293.29901485 98.625 293.375 C97.57699219 293.42140625 97.57699219 293.42140625 96.5078125 293.46875 C92.29814173 293.59499498 92.29814173 293.59499498 89 296 C88.62995706 298.22658154 88.62995706 298.22658154 88.5859375 300.7890625 C88.54726562 301.73007812 88.50859375 302.67109375 88.46875 303.640625 C88.42234375 305.11789062 88.42234375 305.11789062 88.375 306.625 C88.31699219 308.11386719 88.31699219 308.11386719 88.2578125 309.6328125 C88.1633686 312.08835385 88.07780125 314.5438841 88 317 C86.79601562 317.04898437 85.59203125 317.09796875 84.3515625 317.1484375 C82.77601802 317.22346343 81.20049834 317.29901133 79.625 317.375 C78.43390625 317.42140625 78.43390625 317.42140625 77.21875 317.46875 C72.63332625 317.51816421 72.63332625 317.51816421 69 320 C68.69054094 322.00021969 68.69054094 322.00021969 68.734375 324.28125 C68.73179688 325.12300781 68.72921875 325.96476562 68.7265625 326.83203125 C68.73816406 328.15267578 68.73816406 328.15267578 68.75 329.5 C68.74226563 330.38042969 68.73453125 331.26085937 68.7265625 332.16796875 C68.73042969 333.43060547 68.73042969 333.43060547 68.734375 334.71875 C68.73775879 335.87793945 68.73775879 335.87793945 68.74121094 337.06054688 C68.83175627 339.23667061 68.83175627 339.23667061 71 341 C73.81998383 341.2056808 76.54293516 341.28507579 79.36477661 341.2784729 C80.67816019 341.2871615 80.67816019 341.2871615 82.01807678 341.29602563 C84.96928187 341.31311051 87.92033138 341.3159094 90.87158203 341.31884766 C92.98022855 341.32813998 95.08887137 341.3383076 97.19750977 341.34928894 C102.93686984 341.37668144 108.67620526 341.39176567 114.41561365 341.40471697 C120.40811665 341.42030718 126.40056897 341.4471104 132.39303589 341.4727478 C143.7473094 341.5196086 155.10159238 341.5563173 166.45591342 341.58942068 C179.37956623 341.62759058 192.30316823 341.67701411 205.22677827 341.72740483 C231.81781527 341.83083324 258.40888409 341.91965886 285 342 C285 335.73 285 329.46 285 323 C282.03773438 323.04640625 279.07546875 323.0928125 276.0234375 323.140625 C273.14406039 323.17184913 270.26470237 323.19612066 267.38525391 323.21972656 C265.38907382 323.23980169 263.39295225 323.26706789 261.39697266 323.30175781 C258.5223138 323.35045657 255.6484346 323.37300986 252.7734375 323.390625 C251.44184097 323.42159271 251.44184097 323.42159271 250.08334351 323.45318604 C244.57255323 323.45516712 241.23407186 322.87137523 237 319 C232.79671293 313.39750905 232.44795975 308.99954002 232.609375 302.12890625 C232.61340332 301.31031128 232.61743164 300.49171631 232.62158203 299.64831543 C232.64235344 296.61947902 232.69819807 293.59096463 232.75 290.5625 C232.8325 283.776875 232.915 276.99125 233 270 C208.25 270 183.5 270 158 270 C158 239.97 158 209.94 158 179 C182.75 179 207.5 179 233 179 C233 172.4 233 165.8 233 159 C208.25 159 183.5 159 158 159 C158 130.62 158 102.24 158 73 C194.96 73 231.92 73 270 73 C270 96.43 270 119.86 270 144 C319.5 144 369 144 420 144 C420 96.48 420 48.96 420 0 C428 0 428 0 430.36328125 2.32421875 C431.32814453 3.98904297 431.32814453 3.98904297 432.3125 5.6875 C432.67730469 6.30761963 433.04210937 6.92773926 433.41796875 7.56665039 C434.64823923 9.69253094 435.82460954 11.8433373 437 14 C437.43747559 14.77666016 437.87495117 15.55332031 438.32568359 16.35351562 C451.68366064 40.11580398 460.84780754 65.74022778 466.3125 92.4375 C466.45985596 93.15639404 466.60721191 93.87528809 466.7590332 94.6159668 C469.71015207 110.14262092 470.40707988 125.54313408 470.375 141.3125 C470.37418427 142.82677582 470.37418427 142.82677582 470.37335205 144.37164307 C470.33258601 160.88123539 469.42529309 176.79782001 466 193 C465.78037598 194.04188477 465.56075195 195.08376953 465.33447266 196.15722656 C455.23685215 242.45049311 432.87771242 284.86413721 400 319 C399.36787598 319.65935547 398.73575195 320.31871094 398.08447266 320.99804688 C388.94002521 330.48630305 379.64265991 339.2262044 369 347 C367.84894983 347.85806152 366.69790823 348.71613451 365.546875 349.57421875 C357.35724019 355.61177396 348.85461724 360.99457302 340 366 C339.29278809 366.4021875 338.58557617 366.804375 337.85693359 367.21875 C315.1876309 379.98176185 290.76301679 388.55570196 265.3125 393.75 C264.34006348 393.94883789 263.36762695 394.14767578 262.36572266 394.35253906 C246.34258876 397.45550769 230.66298799 398.37611746 214.375 398.3125 C212.92016708 398.30976578 212.92016708 398.30976578 211.4359436 398.30697632 C197.08443945 398.26158309 183.12057082 397.7562347 169 395 C168.10297363 394.83902832 167.20594727 394.67805664 166.28173828 394.51220703 C122.67688031 386.62194853 81.54009529 366.93235057 48 338 C47.25492187 337.36578125 46.50984375 336.7315625 45.7421875 336.078125 C32.23720167 324.26698485 19.56581257 311.51639772 9 297 C8.14350934 295.85005169 7.28673567 294.70031411 6.4296875 293.55078125 C0.3890586 285.35910474 -4.97005071 276.84354922 -10 268 C-10.36448242 267.36819824 -10.72896484 266.73639648 -11.10449219 266.08544922 C-32.71035497 228.33716556 -42.4769659 185.57060585 -42.3125 142.375 C-42.31034485 141.35676147 -42.3081897 140.33852295 -42.30596924 139.28942871 C-42.25626609 124.6652116 -41.94207988 110.37195362 -39 96 C-38.80664062 95.00339355 -38.61328125 94.00678711 -38.4140625 92.97998047 C-32.70403497 64.08177786 -21.78910212 21.78910212 0 0 Z " fill="#D4F2F6" transform="translate(42,114)"/>
<path d="M0 0 C0.97485352 0.19867676 1.94970703 0.39735352 2.95410156 0.60205078 C19.45848828 4.05447263 36.01973347 8.60176118 51.61352539 15.08691406 C55.43068859 16.5473939 59.30694434 16.45656939 63.35546875 16.65625 C66 17 66 17 68 19 C68.12560303 19.65154053 68.25120605 20.30308105 68.38061523 20.97436523 C68.82278969 23.12580842 68.82278969 23.12580842 70.69555664 24.28930664 C71.42637451 24.65918701 72.15719238 25.02906738 72.91015625 25.41015625 C73.72726074 25.83683594 74.54436523 26.26351563 75.38623047 26.703125 C76.71098389 27.37601563 76.71098389 27.37601563 78.0625 28.0625 C101.5000647 40.46447754 121.15351706 57.18045066 139.9375 75.75 C141.02091675 76.81371826 141.02091675 76.81371826 142.1262207 77.89892578 C142.81546631 78.58712402 143.50471191 79.27532227 144.21484375 79.984375 C144.82448975 80.58991211 145.43413574 81.19544922 146.06225586 81.81933594 C148.61013196 84.68661946 150.77051489 87.87872085 153 91 C119.01 91 85.02 91 50 91 C50 114.76 50 138.52 50 163 C52.31 163 54.62 163 57 163 C57 163.33 57 163.66 57 164 C36.959806 164.02360539 16.91961492 164.04111231 -3.12059021 164.05181217 C-12.43049592 164.05691751 -21.74039288 164.0638468 -31.05029297 164.07543945 C-39.1869355 164.08556613 -47.32357168 164.091895 -55.46022034 164.09408849 C-59.74837025 164.09536591 -64.03650204 164.09825401 -68.324646 164.10573006 C-92.90315135 164.14693422 -117.42879591 163.6902292 -142 163 C-142 139.24 -142 115.48 -142 91 C-175.99 91 -209.98 91 -245 91 C-223.9789488 62.97193173 -195.89931362 41.2414173 -165 25 C-164.25105469 24.60312988 -163.50210938 24.20625977 -162.73046875 23.79736328 C-140.67880409 12.27326573 -116.44303189 4.4983747 -92 0 C-91.19933105 -0.16081055 -90.39866211 -0.32162109 -89.57373047 -0.48730469 C-61.57783464 -5.96341256 -27.91677188 -5.84707699 0 0 Z " fill="#FCCB6A" transform="translate(302,3)"/>
<path d="M0 0 C2.64 0 5.28 0 8 0 C8 93.72 8 187.44 8 284 C40.34 284 72.68 284 106 284 C106 286.97 106 289.94 106 293 C104.94039062 293.04898437 103.88078125 293.09796875 102.7890625 293.1484375 C101.40101503 293.22346709 100.01299549 293.29901485 98.625 293.375 C97.57699219 293.42140625 97.57699219 293.42140625 96.5078125 293.46875 C92.29814173 293.59499498 92.29814173 293.59499498 89 296 C88.62995706 298.22658154 88.62995706 298.22658154 88.5859375 300.7890625 C88.54726562 301.73007812 88.50859375 302.67109375 88.46875 303.640625 C88.42234375 305.11789062 88.42234375 305.11789062 88.375 306.625 C88.31699219 308.11386719 88.31699219 308.11386719 88.2578125 309.6328125 C88.1633686 312.08835385 88.07780125 314.5438841 88 317 C86.79601562 317.04898437 85.59203125 317.09796875 84.3515625 317.1484375 C82.77601802 317.22346343 81.20049834 317.29901133 79.625 317.375 C78.43390625 317.42140625 78.43390625 317.42140625 77.21875 317.46875 C72.63332625 317.51816421 72.63332625 317.51816421 69 320 C68.69054094 322.00021969 68.69054094 322.00021969 68.734375 324.28125 C68.73179688 325.12300781 68.72921875 325.96476562 68.7265625 326.83203125 C68.73816406 328.15267578 68.73816406 328.15267578 68.75 329.5 C68.74226563 330.38042969 68.73453125 331.26085937 68.7265625 332.16796875 C68.73042969 333.43060547 68.73042969 333.43060547 68.734375 334.71875 C68.73775879 335.87793945 68.73775879 335.87793945 68.74121094 337.06054688 C68.83175627 339.23667061 68.83175627 339.23667061 71 341 C73.81998383 341.2056808 76.54293516 341.28507579 79.36477661 341.2784729 C80.67816019 341.2871615 80.67816019 341.2871615 82.01807678 341.29602563 C84.96928187 341.31311051 87.92033138 341.3159094 90.87158203 341.31884766 C92.98022855 341.32813998 95.08887137 341.3383076 97.19750977 341.34928894 C102.93686984 341.37668144 108.67620526 341.39176567 114.41561365 341.40471697 C120.40811665 341.42030718 126.40056897 341.4471104 132.39303589 341.4727478 C143.7473094 341.5196086 155.10159238 341.5563173 166.45591342 341.58942068 C179.37956623 341.62759058 192.30316823 341.67701411 205.22677827 341.72740483 C231.81781941 341.83083326 258.40888176 341.91857227 285 342 C285.33 357.51 285.66 373.02 286 389 C247.95216595 398.30517681 207.85363891 402.58395317 169 395 C168.10297363 394.83902832 167.20594727 394.67805664 166.28173828 394.51220703 C122.67688031 386.62194853 81.54009529 366.93235057 48 338 C47.25492187 337.36578125 46.50984375 336.7315625 45.7421875 336.078125 C32.23720167 324.26698485 19.56581257 311.51639772 9 297 C8.14350934 295.85005169 7.28673567 294.70031411 6.4296875 293.55078125 C0.3890586 285.35910474 -4.97005071 276.84354922 -10 268 C-10.36448242 267.36819824 -10.72896484 266.73639648 -11.10449219 266.08544922 C-32.71035497 228.33716556 -42.4769659 185.57060585 -42.3125 142.375 C-42.31034485 141.35676147 -42.3081897 140.33852295 -42.30596924 139.28942871 C-42.25626609 124.6652116 -41.94207988 110.37195362 -39 96 C-38.80664062 95.00339355 -38.61328125 94.00678711 -38.4140625 92.97998047 C-32.70403497 64.08177786 -21.78910212 21.78910212 0 0 Z " fill="#00C53B" transform="translate(42,114)"/>
<path d="M0 0 C29.40873053 -0.08032734 29.40873053 -0.08032734 43.8944912 -0.10050774 C51.74104597 -0.1116073 59.5875584 -0.12571716 67.43408203 -0.15087891 C74.30698186 -0.17290803 81.17983581 -0.18455525 88.05276871 -0.18975449 C90.68032681 -0.19346163 93.3078823 -0.20070029 95.93542099 -0.21146011 C99.60397597 -0.225891 103.27233936 -0.22798147 106.94091797 -0.22705078 C108.03711456 -0.23424133 109.13331116 -0.24143188 110.26272583 -0.24884033 C111.75615509 -0.24471634 111.75615509 -0.24471634 113.27975464 -0.24050903 C114.14808363 -0.24235262 115.01641262 -0.24419621 115.91105461 -0.24609566 C118 0 118 0 120 2 C120.19852102 4.70922801 120.27839477 7.29303179 120.25 10 C120.25773438 10.73734375 120.26546875 11.4746875 120.2734375 12.234375 C120.2533196 17.7466804 120.2533196 17.7466804 118 20 C115.36 20 112.72 20 110 20 C110 67.52 110 115.04 110 164 C60.5 164 11 164 -40 164 C-40 140.57 -40 117.14 -40 93 C-17.1875 92.625 -17.1875 92.625 -9.99291992 92.52197266 C-8.11375497 92.48677136 -6.2346033 92.45085063 -4.35546875 92.4140625 C-3.37759399 92.40270264 -2.39971924 92.39134277 -1.39221191 92.37963867 C-0.45864868 92.35957764 0.47491455 92.3395166 1.43676758 92.31884766 C2.2472908 92.30552399 3.05781403 92.29220032 3.89289856 92.2784729 C6.30100191 92.11776223 6.30100191 92.11776223 9 90 C9.27668225 87.40573202 9.37295242 85.08736354 9.3125 82.5 C9.31572266 81.81035156 9.31894531 81.12070313 9.32226562 80.41015625 C9.38436001 76.24737496 9.38436001 76.24737496 7 73 C4.69 72.67 2.38 72.34 0 72 C0 48.24 0 24.48 0 0 Z " fill="#FF7A7A" transform="translate(352,94)"/>
<path d="M0 0 C0.97485352 0.19867676 1.94970703 0.39735352 2.95410156 0.60205078 C19.45848828 4.05447263 36.01973347 8.60176118 51.61352539 15.08691406 C55.43068859 16.5473939 59.30694434 16.45656939 63.35546875 16.65625 C66 17 66 17 68 19 C68.12560303 19.65154053 68.25120605 20.30308105 68.38061523 20.97436523 C68.82278969 23.12580842 68.82278969 23.12580842 70.69555664 24.28930664 C71.42637451 24.65918701 72.15719238 25.02906738 72.91015625 25.41015625 C73.72726074 25.83683594 74.54436523 26.26351563 75.38623047 26.703125 C76.71098389 27.37601563 76.71098389 27.37601563 78.0625 28.0625 C101.5000647 40.46447754 121.15351706 57.18045066 139.9375 75.75 C141.02091675 76.81371826 141.02091675 76.81371826 142.1262207 77.89892578 C142.81546631 78.58712402 143.50471191 79.27532227 144.21484375 79.984375 C144.82448975 80.58991211 145.43413574 81.19544922 146.06225586 81.81933594 C148.61013196 84.68661946 150.77051489 87.87872085 153 91 C119.01 91 85.02 91 50 91 C50 86.38 50 81.76 50 77 C52.97 76.67 55.94 76.34 59 76 C59 70.06 59 64.12 59 58 C31.76705638 57.97688441 4.53411511 57.95902253 -22.69883633 57.94818783 C-35.34260326 57.94302413 -47.986364 57.93598005 -60.63012695 57.92456055 C-71.64609263 57.91461594 -82.66205383 57.90814711 -93.67802387 57.90591151 C-99.51479558 57.90460402 -105.35155446 57.90151577 -111.18832207 57.89426994 C-116.6752164 57.88751325 -122.16209254 57.88538232 -127.64899063 57.88689232 C-129.6691059 57.88661583 -131.68922173 57.88460864 -133.70933342 57.88079453 C-136.45467751 57.87586275 -139.19995174 57.87699979 -141.94529724 57.87974548 C-143.16074027 57.87537622 -143.16074027 57.87537622 -144.4007377 57.87091869 C-147.99717082 57.54327618 -147.99717082 57.54327618 -151 59 C-151.09981214 61.6773138 -151.13879875 64.32304175 -151.125 67 C-151.12886719 67.75023438 -151.13273437 68.50046875 -151.13671875 69.2734375 C-151.47675541 72.93606117 -151.47675541 72.93606117 -150 76 C-148.65252916 76.23075082 -147.29622435 76.41153063 -145.9375 76.5625 C-144.638125 76.706875 -143.33875 76.85125 -142 77 C-142 81.62 -142 86.24 -142 91 C-175.99 91 -209.98 91 -245 91 C-223.9789488 62.97193173 -195.89931362 41.2414173 -165 25 C-164.25105469 24.60312988 -163.50210938 24.20625977 -162.73046875 23.79736328 C-140.67880409 12.27326573 -116.44303189 4.4983747 -92 0 C-91.19933105 -0.16081055 -90.39866211 -0.32162109 -89.57373047 -0.48730469 C-61.57783464 -5.96341256 -27.91677188 -5.84707699 0 0 Z " fill="#2CD1E2" transform="translate(302,3)"/>
<path d="M0 0 C23.1 0 46.2 0 70 0 C70 17.16 70 34.32 70 52 C66.535 52.495 66.535 52.495 63 53 C60.50789561 55.49210439 60.73984339 57.00360788 60.7265625 60.41015625 C60.73816406 61.44462891 60.73816406 61.44462891 60.75 62.5 C60.74226563 63.18964844 60.73453125 63.87929687 60.7265625 64.58984375 C60.6238695 68.75214386 60.6238695 68.75214386 63 72 C65.31 72.33 67.62 72.66 70 73 C70 101.38 70 129.76 70 159 C67.36 159.33 64.72 159.66 62 160 C60.17883997 161.82116003 60.8676492 164.30671764 60.86328125 166.7265625 C60.86714844 167.47679687 60.87101562 168.22703125 60.875 169 C60.87113281 169.75023437 60.86726563 170.50046875 60.86328125 171.2734375 C60.52324459 174.93606117 60.52324459 174.93606117 62 178 C64.64 178.33 67.28 178.66 70 179 C70 187.25 70 195.5 70 204 C60.43 204 50.86 204 41 204 C41.11829825 212.94485927 41.11829825 212.94485927 41.27026367 221.88916016 C41.27775635 223.01112793 41.28524902 224.1330957 41.29296875 225.2890625 C41.3086792 226.43068848 41.32438965 227.57231445 41.34057617 228.74853516 C40.94500936 232.52499311 40.09770628 234.83674228 38 238 C33.93893537 240.52312779 29.46806836 240.3376251 24.8125 240.37109375 C24.03237549 240.38012222 23.25225098 240.3891507 22.44848633 240.39845276 C20.80456355 240.41291334 19.16058376 240.42183154 17.51660156 240.42553711 C15.00747909 240.43746445 12.50079386 240.48671107 9.9921875 240.53710938 C8.39063694 240.54657137 6.78907136 240.55380748 5.1875 240.55859375 C4.44153564 240.57812607 3.69557129 240.59765839 2.92700195 240.61778259 C-1.04328834 240.58351777 -2.80553862 240.15478031 -5.94921875 237.65258789 C-9.24672165 233.38742491 -9.16228881 229.65619896 -9.19287109 224.48681641 C-9.20104858 223.72387772 -9.20922607 222.96093903 -9.21765137 222.17488098 C-9.24246174 219.65044943 -9.25900838 217.12607386 -9.2734375 214.6015625 C-9.27876118 213.73898205 -9.28408485 212.8764016 -9.28956985 211.98768234 C-9.31627995 207.42376342 -9.3356634 202.85987167 -9.35009766 198.29589844 C-9.36344919 194.51863454 -9.39132664 190.74190929 -9.43212891 186.96484375 C-9.48140619 182.40313403 -9.50621221 177.84191372 -9.51332474 173.27994919 C-9.52004197 171.54238924 -9.53527642 169.80484042 -9.55921555 168.0674324 C-9.590824 165.63503234 -9.59091148 163.20452403 -9.58349609 160.77197266 C-9.59990143 160.05595383 -9.61630676 159.339935 -9.63320923 158.60221863 C-9.58507291 154.74102734 -9.10050428 153.12507573 -6.65103149 150.07675171 C-4 148 -4 148 -1 147 C-1 139.08 -1 131.16 -1 123 C-2.98 122.01 -4.96 121.02 -7 120 C-9.44368257 116.02815297 -9.30216248 111.80083604 -9.30639648 107.25976562 C-9.31472 106.49653488 -9.32304352 105.73330414 -9.33161926 104.94694519 C-9.35564251 102.43332773 -9.36448039 99.91996994 -9.37109375 97.40625 C-9.38006353 95.65417403 -9.38918544 93.90209883 -9.39845276 92.15002441 C-9.41492271 88.48167053 -9.42263965 84.81340773 -9.42553711 81.14501953 C-9.43092934 76.44716645 -9.46865203 71.75016978 -9.51428127 67.0525589 C-9.5440325 63.43569818 -9.55126018 59.8190446 -9.55226326 56.20207214 C-9.5564668 54.47010867 -9.56890654 52.73814466 -9.58978081 51.00630188 C-9.61666613 48.58363789 -9.61188068 46.16297182 -9.59936523 43.74023438 C-9.61419952 43.02735764 -9.62903381 42.3144809 -9.64431763 41.58000183 C-9.58771402 37.72841718 -9.09507328 36.11818676 -6.65003967 33.07873535 C-4 31 -4 31 -1 30 C-0.67 20.1 -0.34 10.2 0 0 Z " fill="#FF7A7A" transform="translate(90,114)"/>
<path d="M0 0 C0.86832899 0.00184359 1.73665798 0.00368717 2.63129997 0.00558662 C3.62691948 0.0028373 4.62253899 0.00008797 5.64832878 -0.00274467 C7.29262367 0.00804115 7.29262367 0.00804115 8.97013664 0.01904488 C10.12135002 0.01875282 11.2725634 0.01846077 12.45866203 0.01815987 C16.27880603 0.01955759 20.09875702 0.03513974 23.91886711 0.05078316 C26.56159674 0.05451171 29.20432775 0.05735942 31.84705925 0.0593586 C38.10148595 0.06558071 44.35584294 0.08200137 50.61023891 0.10205758 C57.72984981 0.12439387 64.84946399 0.13540428 71.96910119 0.14544845 C86.61645589 0.166367 101.26375194 0.20195889 115.91105461 0.24609566 C115.91105461 6.84609566 115.91105461 13.44609566 115.91105461 20.24609566 C92.81105461 20.24609566 69.71105461 20.24609566 45.91105461 20.24609566 C45.91105461 30.14609566 45.91105461 40.04609566 45.91105461 50.24609566 C43.93105461 51.23609566 41.95105461 52.22609566 39.91105461 53.24609566 C37.48603284 56.88362831 37.62863555 59.55640249 37.65226555 63.75927925 C37.64876091 64.52221794 37.64525627 65.28515663 37.64164543 66.07121468 C37.63283629 68.59574649 37.63867549 71.11999844 37.64542961 73.64453316 C37.64408245 75.39946738 37.64214148 77.15440124 37.63963127 78.90933418 C37.63668089 82.58965796 37.64097386 86.26988471 37.65031242 89.95019722 C37.66169013 94.66351449 37.65515764 99.37660357 37.6431675 104.08991241 C37.63593226 107.71534117 37.63824476 111.34071607 37.64342308 114.96614647 C37.64475584 116.70365234 37.64312494 118.44116312 37.63846397 120.17866325 C37.63337328 122.61061439 37.64114533 125.04219908 37.65226555 127.474123 C37.64821709 128.19014183 37.64416862 128.90616066 37.63999748 129.64387703 C37.67341947 133.59820598 37.81089214 136.8431306 39.91105461 140.24609566 C41.89105461 141.23609566 43.87105461 142.22609566 45.91105461 143.24609566 C45.91105461 151.16609566 45.91105461 159.08609566 45.91105461 167.24609566 C43.93105461 168.23609566 41.95105461 169.22609566 39.91105461 170.24609566 C37.48603284 173.88362831 37.62863555 176.55640249 37.65226555 180.75927925 C37.64876091 181.52221794 37.64525627 182.28515663 37.64164543 183.07121468 C37.63283629 185.59574649 37.63867549 188.11999844 37.64542961 190.64453316 C37.64408245 192.39946738 37.64214148 194.15440124 37.63963127 195.90933418 C37.63668089 199.58965796 37.64097386 203.26988471 37.65031242 206.95019722 C37.66169013 211.66351449 37.65515764 216.37660357 37.6431675 221.08991241 C37.63593226 224.71534117 37.63824476 228.34071607 37.64342308 231.96614647 C37.64475584 233.70365234 37.64312494 235.44116312 37.63846397 237.17866325 C37.63337328 239.61061439 37.64114533 242.04219908 37.65226555 244.474123 C37.64821709 245.19014183 37.64416862 245.90616066 37.63999748 246.64387703 C37.67344541 250.60127508 37.99616192 253.74882968 39.91105461 257.24609566 C43.65011703 259.73880394 46.57526055 259.53488867 50.90324211 259.51172066 C51.68619652 259.51363411 52.46915092 259.51554756 53.27583122 259.517519 C54.9317488 259.51887943 56.58767709 259.51519285 58.24357414 259.50683784 C60.76969916 259.49616476 63.29510839 259.50672281 65.82121086 259.51953316 C67.43188951 259.51821097 69.04256771 259.51564737 70.65324211 259.51172066 C71.40548058 259.51576912 72.15771904 259.51981758 72.93275261 259.52398872 C76.98653153 259.48802866 80.40961003 259.39771268 83.91105461 257.24609566 C86.09399395 253.49367678 86.20789073 249.91157737 86.32511711 245.63281441 C86.36072746 244.50834908 86.39633781 243.38388374 86.43302727 242.2253437 C86.4840258 240.10092842 86.4840258 240.10092842 86.53605461 237.93359566 C86.65980461 233.41672066 86.78355461 228.89984566 86.91105461 224.24609566 C96.48105461 224.24609566 106.05105461 224.24609566 115.91105461 224.24609566 C115.91105461 246.02609566 115.91105461 267.80609566 115.91105461 290.24609566 C112.94105461 290.57609566 109.97105461 290.90609566 106.91105461 291.24609566 C103.65202529 294.07833538 103.65202529 294.07833538 103.91105461 304.24609566 C71.57105461 304.24609566 39.23105461 304.24609566 5.91105461 304.24609566 C5.91105461 210.52609566 5.91105461 116.80609566 5.91105461 20.24609566 C3.27105461 20.24609566 0.63105461 20.24609566 -2.08894539 20.24609566 C-4.64843538 17.68660567 -4.3496327 15.97402371 -4.36238289 12.48047066 C-4.35464851 11.74312691 -4.34691414 11.00578316 -4.33894539 10.24609566 C-4.34667976 9.50875191 -4.35441414 8.77140816 -4.36238289 8.01172066 C-4.3350069 0.51070094 -4.3350069 0.51070094 0 0 Z " fill="#FF5757" transform="translate(44.088945388793945,93.75390434265137)"/>
<path d="M0 0 C1.57121864 -0.00618599 1.57121864 -0.00618599 3.17417908 -0.01249695 C4.8972377 0.00368179 4.8972377 0.00368179 6.65510559 0.02018738 C8.46992683 0.01953026 8.46992683 0.01953026 10.32141113 0.01885986 C13.63952858 0.02059308 16.95708761 0.03564868 20.27510619 0.05658174 C23.74243894 0.07532261 27.20977896 0.07709692 30.67715454 0.08065796 C37.24324684 0.08998607 43.80918947 0.11461012 50.37521583 0.14470643 C57.85033365 0.17822668 65.32545858 0.19473045 72.80063283 0.20979273 C88.17774757 0.24115909 103.55471295 0.29393436 118.93171692 0.36076355 C118.94106262 1.59641052 118.95040833 2.8320575 118.96003723 4.10514832 C119.00005428 8.71065177 119.06584567 13.31549545 119.13923645 17.920578 C119.16737823 19.90974928 119.18862643 21.89903098 119.20271301 23.88835144 C119.22423674 26.75602975 119.27093504 29.62239004 119.32234192 32.4896698 C119.32418488 33.8135244 119.32418488 33.8135244 119.32606506 35.16412354 C119.46401984 41.04330099 120.55132398 44.51892892 123.93171692 49.36076355 C128.26320615 53.20818286 133.09666515 52.8330444 138.60749817 52.8724823 C139.53265732 52.8904335 140.45781647 52.9083847 141.41101074 52.92687988 C144.35536695 52.98090434 147.29956176 53.01485346 150.24421692 53.04826355 C152.24489038 53.08144356 154.24554256 53.11593385 156.24617004 53.15177917 C161.14137456 53.23908477 166.03584989 53.29922036 170.93171692 53.36076355 C170.93171692 59.63076355 170.93171692 65.90076355 170.93171692 72.36076355 C143.08140995 72.43013906 115.2311237 72.48371075 87.3807478 72.51620007 C74.4500351 72.53168476 61.519377 72.55280486 48.58869934 72.58708191 C37.32147747 72.61693524 26.05429513 72.63632689 14.78703481 72.64302903 C8.81825164 72.64694819 2.84958158 72.65619195 -3.11916542 72.67795372 C-8.73250296 72.69825465 -14.34568037 72.70461033 -19.95905113 72.70008659 C-22.02348576 72.70091467 -24.08792552 72.7069182 -26.15232849 72.71837997 C-28.96283564 72.73322405 -31.77273177 72.72974684 -34.58325195 72.7215271 C-35.81913857 72.73463489 -35.81913857 72.73463489 -37.07999259 72.74800748 C-42.64865225 72.70374139 -42.64865225 72.70374139 -44.77597541 70.96501142 C-46.45105708 68.88559469 -46.45494499 67.66596188 -46.46672058 65.01701355 C-46.47058777 64.18299011 -46.47445496 63.34896667 -46.47843933 62.4896698 C-46.46103699 61.18836121 -46.46103699 61.18836121 -46.44328308 59.86076355 C-46.45488464 58.99322449 -46.46648621 58.12568542 -46.47843933 57.2318573 C-46.47263855 55.98082214 -46.47263855 55.98082214 -46.46672058 54.70451355 C-46.46333679 53.94332214 -46.459953 53.18213074 -46.45646667 52.39787292 C-45.95948127 49.78979357 -45.20848789 48.9069548 -43.06828308 47.36076355 C-41.16716003 47.02018738 -41.16716003 47.02018738 -39.05656433 47.0677948 C-38.29924011 47.07746277 -37.54191589 47.08713074 -36.76164246 47.09709167 C-35.97595886 47.12222839 -35.19027527 47.14736511 -34.38078308 47.17326355 C-33.18485535 47.19356628 -33.18485535 47.19356628 -31.96476746 47.21427917 C-29.99898341 47.24959266 -28.03354726 47.30339908 -26.06828308 47.36076355 C-26.08399353 46.74032166 -26.09970398 46.11987976 -26.1158905 45.4806366 C-26.17824523 42.66993827 -26.21727456 39.85938543 -26.25578308 37.04826355 C-26.2809198 36.07179871 -26.30605652 35.09533386 -26.33195496 34.08927917 C-26.34162292 33.15148621 -26.35129089 32.21369324 -26.36125183 31.2474823 C-26.37696228 30.38340759 -26.39267273 29.51933289 -26.40885925 28.6290741 C-26.06828308 26.36076355 -26.06828308 26.36076355 -24.77336121 24.57365417 C-21.93532069 22.55484185 -18.72289336 23.05156206 -15.38078308 23.17326355 C-14.67888855 23.18679871 -13.97699402 23.20033386 -13.25382996 23.21427917 C-11.52498479 23.24956173 -9.79653543 23.30336772 -8.06828308 23.36076355 C-8.08399353 22.77061462 -8.09970398 22.1804657 -8.1158905 21.57243347 C-8.17826247 18.89780769 -8.21727966 16.22333491 -8.25578308 13.54826355 C-8.2809198 12.61949402 -8.30605652 11.69072449 -8.33195496 10.73381042 C-8.34162292 9.84113464 -8.35129089 8.94845886 -8.36125183 8.0287323 C-8.37696228 7.20655212 -8.39267273 6.38437195 -8.40885925 5.53727722 C-7.64068869 0.62814418 -4.48111374 -0.01359286 0 0 Z " fill="#FED88F" transform="translate(156.0682830810547,383.6392364501953)"/>
<path d="M0 0 C2.64 0 5.28 0 8 0 C8 93.72 8 187.44 8 284 C-0 284 -0 284 -2.3984375 281.60546875 C-3.37683594 279.91357422 -3.37683594 279.91357422 -4.375 278.1875 C-4.74310791 277.56077393 -5.11121582 276.93404785 -5.49047852 276.28833008 C-6.69388532 274.20948844 -7.84704291 272.10717766 -9 270 C-9.81361603 268.57281058 -10.62742085 267.14572878 -11.44140625 265.71875 C-32.60220202 227.80132957 -42.47686931 185.54523745 -42.3125 142.375 C-42.31034485 141.35676147 -42.3081897 140.33852295 -42.30596924 139.28942871 C-42.25626609 124.6652116 -41.94207988 110.37195362 -39 96 C-38.80664062 95.00339355 -38.61328125 94.00678711 -38.4140625 92.97998047 C-32.70403497 64.08177786 -21.78910212 21.78910212 0 0 Z " fill="#2CD2E3" transform="translate(42,114)"/>
<path d="M0 0 C3.27899346 1.67288433 6.24152033 3.74356294 9.25390625 5.8515625 C10.15004135 6.46204437 11.04617645 7.07252625 11.96946716 7.70150757 C14.84290904 9.66309221 17.70283773 11.64339528 20.5625 13.625 C22.42814439 14.90494708 24.29467356 16.18360552 26.16210938 17.4609375 C28.95790072 19.37381365 31.75258579 21.28815347 34.5428772 23.20904541 C42.13819155 28.43487888 49.79929092 33.55716908 57.49867249 38.62832642 C58.32403 39.1742746 59.14938751 39.72022278 59.99975586 40.28271484 C60.72625839 40.76090668 61.45276093 41.23909851 62.20127869 41.73178101 C64 43 64 43 66 45 C66.49658203 47.92138672 66.49658203 47.92138672 66 51 C63.40576172 52.70751953 63.40576172 52.70751953 60.0546875 54.2578125 C55.82987445 56.7673142 55.82987445 56.7673142 53.33166504 60.83093262 C52.41425309 66.15419888 52.81535664 71.51072543 53.125 76.875 C53.16810172 78.50768024 53.20591043 80.14050926 53.23828125 81.7734375 C52.92206797 89.52700299 52.92206797 89.52700299 56 96 C56.24291992 99.05688477 56.24291992 99.05688477 56.23046875 102.94140625 C56.23001053 103.62428207 56.22955231 104.3071579 56.2290802 105.01072693 C56.22605891 106.45402769 56.21817622 107.89732522 56.20581055 109.34057617 C56.1875433 111.55724553 56.18530093 113.77349758 56.18554688 115.99023438 C56.14742468 126.85257532 56.14742468 126.85257532 55 128 C52.83519203 128.0989294 50.66706215 128.129711 48.5 128.125 C47.3140625 128.12757813 46.128125 128.13015625 44.90625 128.1328125 C42 128 42 128 41 127 C40.8992188 124.63601532 40.86026785 122.30188689 40.8671875 119.9375 C40.86623077 119.23101318 40.86527405 118.52452637 40.86428833 117.79663086 C40.86360667 116.30029207 40.86545995 114.80395033 40.86962891 113.30761719 C40.87497743 111.00969843 40.86968349 108.71197514 40.86328125 106.4140625 C40.86394203 104.96354123 40.8652232 103.51302009 40.8671875 102.0625 C40.86516327 101.3708374 40.86313904 100.6791748 40.86105347 99.96655273 C40.88504776 95.11495224 40.88504776 95.11495224 42 94 C42.15825258 92.00217874 42.25119171 89.99911166 42.31640625 87.99609375 C42.35830078 86.78115234 42.40019531 85.56621094 42.44335938 84.31445312 C42.48267578 83.03505859 42.52199219 81.75566406 42.5625 80.4375 C42.62727539 78.51260742 42.62727539 78.51260742 42.69335938 76.54882812 C42.799848 73.36600147 42.90185962 70.18309326 43 67 C39.55289445 67.98523517 37.31319265 69.23099056 35 72 C33.94514646 77.67473587 34.19083737 83.31154955 34.375 89.0625 C34.43952492 91.41356671 34.49189136 93.76195142 34.50747681 96.11387634 C34.51790604 97.57349994 34.55657579 99.03326737 34.62704468 100.4912262 C34.64599609 102.50415039 34.64599609 102.50415039 34 106 C20.6797811 117.23197243 1.16561539 116.85552735 -15.24609375 115.7890625 C-22.82933946 114.86302164 -35.4013673 111.5986327 -41 106 C-41.08851529 103.40640678 -41.11525945 100.83960309 -41.09765625 98.24609375 C-41.0962413 97.47064713 -41.09482635 96.6952005 -41.09336853 95.89625549 C-41.08775345 93.40996506 -41.07519846 90.9237634 -41.0625 88.4375 C-41.05748694 86.75586067 -41.0529237 85.07421994 -41.04882812 83.39257812 C-41.03777913 79.26168434 -41.02050445 75.13085724 -41 71 C-41.70358643 70.74927734 -42.40717285 70.49855469 -43.13208008 70.24023438 C-46.34203936 68.85208479 -48.9991805 67.12910509 -51.88671875 65.15625 C-52.42980179 64.78649048 -52.97288483 64.41673096 -53.53242493 64.0357666 C-54.67265936 63.25804168 -55.81132528 62.47801262 -56.94848633 61.69580078 C-58.68922954 60.49881071 -60.43496779 59.30940999 -62.18164062 58.12109375 C-70.69820253 52.30179747 -70.69820253 52.30179747 -73 50 C-73.38305664 47.58789062 -73.38305664 47.58789062 -73 45 C-71.36499023 43.27148438 -71.36499023 43.27148438 -68.87109375 41.59375 C-67.8641748 40.90667969 -66.85725586 40.21960938 -65.81982422 39.51171875 C-64.54710447 38.67363575 -63.2737683 37.83648849 -62 37 C-60.38645239 35.9238202 -58.77336831 34.84694522 -57.16064453 33.76953125 C-51.47844918 29.98674173 -45.77122543 26.24257972 -40.0625 22.5 C-37.12738584 20.57228184 -34.19276459 18.64381826 -31.25863647 16.71459961 C-29.37723593 15.478917 -27.49446757 14.24531416 -25.61026001 13.01391602 C-21.75858994 10.49360617 -17.91929184 7.96870778 -14.15966797 5.3125 C-13.11568848 4.5803125 -12.07170898 3.848125 -10.99609375 3.09375 C-10.15103271 2.48208984 -9.30597168 1.87042969 -8.43530273 1.24023438 C-5.17424357 -0.42053561 -3.64029096 -0.62313248 0 0 Z " fill="#013D79" transform="translate(367,288)"/>
<path d="M0 0 C36.96 0 73.92 0 112 0 C112 23.43 112 46.86 112 71 C103.42 71.33 94.84 71.66 86 72 C80.20740531 74.89629734 78.88455856 75.65822488 76 81 C75.67 82.65 75.34 84.3 75 86 C50.25 86 25.5 86 0 86 C0 57.62 0 29.24 0 0 Z " fill="#5290D9" transform="translate(200,187)"/>
<path d="M0 0 C0.89872833 -0.00708481 1.79745667 -0.01416962 2.72341919 -0.02146912 C3.71204453 -0.0189917 4.70066986 -0.01651428 5.71925354 -0.01396179 C6.75835876 -0.01907272 7.79746399 -0.02418365 8.86805725 -0.02944946 C12.31664221 -0.04339508 15.76502843 -0.04238495 19.21363831 -0.04008484 C21.60256017 -0.04396904 23.99148134 -0.04830313 26.38040161 -0.05307007 C31.39327735 -0.06054299 36.40608267 -0.06023324 41.41896057 -0.05497742 C47.85327613 -0.04918147 54.28730396 -0.06611188 60.72157192 -0.08932209 C65.6568369 -0.10403063 70.59203213 -0.10493505 75.52731514 -0.10181236 C77.90005628 -0.10232703 80.27280118 -0.10759179 82.64552116 -0.11762428 C85.95935309 -0.12991545 89.27261866 -0.12324082 92.58644104 -0.11161804 C94.0663427 -0.12308365 94.0663427 -0.12308365 95.57614136 -0.13478088 C96.47768951 -0.12776657 97.37923767 -0.12075226 98.30810547 -0.11352539 C99.48364314 -0.113777 99.48364314 -0.113777 100.68292904 -0.1140337 C103.2685947 0.36218737 104.15410873 1.17577972 105.71754456 3.26069641 C106.07830811 6.2409668 106.07830811 6.2409668 106.05812073 9.93525696 C106.05848233 10.61955937 106.05884394 11.30386179 106.0592165 12.00890064 C106.05697886 14.22203735 106.03414159 16.43441422 106.01051331 18.64741516 C106.00610196 20.01447688 106.00304173 21.38154365 106.00135803 22.74861145 C105.98563511 27.81521709 105.94375137 32.88171423 105.90504456 37.94819641 C105.84316956 49.27132141 105.78129456 60.59444641 105.71754456 72.26069641 C68.75754456 72.26069641 31.79754456 72.26069641 -6.28245544 72.26069641 C-6.32370544 60.75194641 -6.36495544 49.24319641 -6.40745544 37.38569641 C-6.42566345 33.74941223 -6.44387146 30.11312805 -6.46263123 26.36665344 C-6.47166443 21.93232727 -6.47166443 21.93232727 -6.4733429 19.85758972 C-6.47641763 18.40599849 -6.48345909 16.95441242 -6.49360657 15.50285339 C-6.50819669 13.30632121 -6.51026913 11.11010165 -6.50950623 8.91352844 C-6.51394745 7.67442719 -6.51838867 6.43532593 -6.52296448 5.15867615 C-6.13280943 0.45755787 -4.26423348 0.01117548 0 0 Z " fill="#518FD8" transform="translate(206.28245544433594,93.73930358886719)"/>
<path d="M0 0 C24.75 0 49.5 0 75 0 C75 30.03 75 60.06 75 91 C50.25 91 25.5 91 0 91 C0 60.97 0 30.94 0 0 Z " fill="#518FD8" transform="translate(200,293)"/>
<path d="M0 0 C1.05904289 0.00212242 1.05904289 0.00212242 2.13948059 0.00428772 C4.39120751 0.00987861 6.64283446 0.02242937 8.89453125 0.03515625 C10.4225246 0.04017243 11.95051952 0.04473513 13.47851562 0.04882812 C17.2213926 0.05984505 20.96419498 0.07710338 24.70703125 0.09765625 C23.96453125 0.63390625 23.22203125 1.17015625 22.45703125 1.72265625 C18.6634845 4.99890117 15.98639757 7.54001505 15.41946411 12.7303772 C15.36302705 16.03447775 15.44262909 19.31453876 15.5546875 22.6171875 C15.58404703 25.10869396 15.61065402 27.6002341 15.63476562 30.09179688 C15.6924653 34.00383481 15.76959149 37.91203061 15.89526367 41.82250977 C16.53133877 63.32564561 16.53133877 63.32564561 13.3805542 68.11322021 C10.62822017 70.75956514 8.02986884 72.09526419 4.51342773 73.6315918 C3.58731689 74.11539307 2.66120605 74.59919434 1.70703125 75.09765625 C0.97899197 77.63764735 0.97899197 77.63764735 1.70703125 80.09765625 C4.01307488 82.3511394 4.01307488 82.3511394 7.01953125 84.22265625 C14.20665305 89.0516505 14.20665305 89.0516505 15.70703125 91.09765625 C15.97201042 93.62128602 16.05580661 95.89164886 16 98.41137695 C15.9934288 99.52411484 15.9934288 99.52411484 15.98672485 100.65933228 C15.97530968 102.27012935 15.95696255 103.88088875 15.93252563 105.49154091 C15.89423348 108.04328044 15.87468812 110.59455206 15.86010742 113.14653015 C15.81998585 119.48668483 15.74750688 125.82639659 15.67590332 132.16625977 C15.61663553 137.51987914 15.56973702 142.87333106 15.53921509 148.22719383 C15.51981483 150.73675414 15.48228667 153.24562483 15.4440918 155.75495911 C15.43318796 157.30188401 15.42313355 158.84881521 15.4140625 160.39575195 C15.39856354 161.08947403 15.38306458 161.78319611 15.36709595 162.49794006 C15.36560267 167.10022088 16.25246722 170.20874536 18.70703125 174.09765625 C21.77420249 176.39348488 21.77420249 176.39348488 24.70703125 178.09765625 C24.70703125 178.42765625 24.70703125 178.75765625 24.70703125 179.09765625 C20.11725087 179.19695255 15.52810337 179.26932373 10.9375 179.31738281 C9.37781881 179.33742847 7.81821212 179.36467282 6.25878906 179.39941406 C4.00957811 179.44824751 1.76136535 179.4706944 -0.48828125 179.48828125 C-1.52458176 179.51924896 -1.52458176 179.51924896 -2.58181763 179.55084229 C-7.6541523 179.5531634 -10.4883693 178.42138446 -14.29296875 175.09765625 C-19.58430812 168.42106833 -18.85830027 161.01715665 -18.81054688 152.89428711 C-18.81597204 151.34635257 -18.82309691 149.79842319 -18.83178711 148.25050354 C-18.84997516 144.06043664 -18.84297218 139.87076503 -18.83027077 135.68069148 C-18.82012141 131.28992977 -18.82954165 126.89920119 -18.83581543 122.50843811 C-18.84308544 115.13699282 -18.83352034 107.76570802 -18.81445312 100.39428711 C-18.7926775 91.87754748 -18.79974327 83.36119081 -18.82175875 74.84446043 C-18.83992157 67.52450758 -18.84246701 60.20466989 -18.83200407 52.88470179 C-18.82577501 48.51608253 -18.82491744 44.14764319 -18.83815002 39.77903557 C-18.8497211 35.67240058 -18.84166021 31.56625858 -18.818573 27.45967674 C-18.81329292 25.95445829 -18.81478774 24.44919821 -18.82362366 22.94399643 C-18.83459142 20.8855648 -18.82080437 18.82870268 -18.80090332 16.77037048 C-18.79939522 15.61984664 -18.79788712 14.4693228 -18.79633331 13.28393459 C-18.05022429 8.56109312 -15.78751908 5.41104896 -12.23046875 2.28515625 C-8.24300708 -0.15877187 -4.51267945 -0.03402777 0 0 Z " fill="#AFE9F1" transform="translate(293.29296875,257.90234375)"/>
<path d="M0 0 C8 0 8 0 10.36328125 2.32421875 C11.00652344 3.43410156 11.64976562 4.54398437 12.3125 5.6875 C12.67730469 6.30761963 13.04210937 6.92773926 13.41796875 7.56665039 C14.64823923 9.69253094 15.82460954 11.8433373 17 14 C17.43747559 14.77666016 17.87495117 15.55332031 18.32568359 16.35351562 C31.68366064 40.11580398 40.84780754 65.74022778 46.3125 92.4375 C46.53353394 93.51584106 46.53353394 93.51584106 46.7590332 94.6159668 C49.51302715 109.10549209 50.28367421 123.35220355 50.125 138.0625 C50.11492966 139.71939551 50.10581112 141.37629708 50.09765625 143.03320312 C50.07601061 147.02229036 50.04171509 151.01107426 50 155 C49.54367187 154.38382813 49.08734375 153.76765625 48.6171875 153.1328125 C45.32207374 148.78708276 43.21493833 147.08597533 38 145 C25.46 144.67 12.92 144.34 0 144 C0 96.48 0 48.96 0 0 Z " fill="#2DD2E3" transform="translate(462,114)"/>
<path d="M0 0 C2.26038854 1.13019427 3.57118826 1.15268957 6.08251953 1.20532227 C6.92324005 1.22526749 7.76396057 1.24521271 8.63015747 1.26576233 C9.99272171 1.29083107 9.99272171 1.29083107 11.3828125 1.31640625 C12.31221649 1.33718735 13.24162048 1.35796844 14.19918823 1.37937927 C17.1743821 1.44487646 20.14966577 1.50376052 23.125 1.5625 C25.13933228 1.60568506 27.15365541 1.64929934 29.16796875 1.69335938 C34.11188838 1.80136751 39.05587407 1.90043962 44 2 C44 8.27 44 14.54 44 21 C16.14969303 21.06937551 -11.70059321 21.1229472 -39.55096912 21.15543652 C-52.48168182 21.17092121 -65.41233992 21.19204131 -78.34301758 21.22631836 C-89.61023945 21.25617169 -100.87742179 21.27556334 -112.14468211 21.28226548 C-118.11346528 21.28618464 -124.08213534 21.2954284 -130.05088234 21.31719017 C-135.66421988 21.3374911 -141.27739729 21.34384678 -146.89076805 21.33932304 C-148.95520268 21.34015112 -151.01964244 21.34615465 -153.08404541 21.35761642 C-155.89455255 21.3724605 -158.70444869 21.36898329 -161.51496887 21.36076355 C-162.33889328 21.36950207 -163.16281769 21.3782406 -164.01170951 21.38724393 C-169.58036917 21.34297784 -169.58036917 21.34297784 -171.70769233 19.60424787 C-173.382774 17.52483114 -173.3866619 16.30519833 -173.3984375 13.65625 C-173.40230469 12.82222656 -173.40617187 11.98820312 -173.41015625 11.12890625 C-173.39275391 9.82759766 -173.39275391 9.82759766 -173.375 8.5 C-173.38660156 7.63246094 -173.39820313 6.76492188 -173.41015625 5.87109375 C-173.40435547 4.62005859 -173.40435547 4.62005859 -173.3984375 3.34375 C-173.39505371 2.58255859 -173.39166992 1.82136719 -173.38818359 1.03710938 C-172.87562655 -1.65268684 -172.19948643 -2.36668141 -170 -4 C-167.08636761 -4.39872742 -167.08636761 -4.39872742 -163.45353699 -4.43237305 C-162.78550452 -4.4425477 -162.11747205 -4.45272236 -161.42919618 -4.46320534 C-159.18603262 -4.49361545 -156.94329516 -4.50264809 -154.69995117 -4.51171875 C-153.09348738 -4.52891709 -151.48703644 -4.54735435 -149.88059998 -4.56694031 C-145.51278833 -4.61598331 -141.14504452 -4.64575977 -136.77703643 -4.67076874 C-133.13142342 -4.69307825 -129.48590254 -4.72397837 -125.84035188 -4.75465012 C-117.23859802 -4.82658143 -108.63684023 -4.88217357 -100.03491211 -4.92822266 C-91.16134151 -4.97605661 -82.28837032 -5.05345872 -73.41515368 -5.14513111 C-65.79816342 -5.22265651 -58.18118941 -5.28071144 -50.56392461 -5.32342052 C-46.01402191 -5.34919564 -41.46449503 -5.38259906 -36.9148159 -5.43515015 C-32.6343215 -5.48383103 -28.35436329 -5.50821481 -24.07360268 -5.51401711 C-22.50381755 -5.52021656 -20.93403896 -5.53498801 -19.36442566 -5.55902672 C-17.21810055 -5.59053698 -15.0739081 -5.59085176 -12.92741394 -5.58349609 C-11.72744876 -5.59158295 -10.52748358 -5.5996698 -9.29115582 -5.60800171 C-4.88313135 -4.79367186 -3.24340168 -3.04339648 0 0 Z " fill="#FEE6BE" transform="translate(283,435)"/>
<path d="M0 0 C27.58176109 12.88867341 50.41785734 31.47602061 71.9375 52.75 C72.65977783 53.45914551 73.38205566 54.16829102 74.1262207 54.89892578 C74.81546631 55.58712402 75.50471191 56.27532227 76.21484375 56.984375 C77.12931274 57.89268066 77.12931274 57.89268066 78.06225586 58.81933594 C80.61013196 61.68661946 82.77051489 64.87872085 85 68 C51.01 68 17.02 68 -18 68 C-18 63.38 -18 58.76 -18 54 C-13.545 53.505 -13.545 53.505 -9 53 C-9 47.06 -9 41.12 -9 35 C-41.34 34.67 -73.68 34.34 -107 34 C-107 27.4 -107 20.8 -107 14 C-98.09 14 -89.18 14 -80 14 C-79.67 16.97 -79.34 19.94 -79 23 C-53.26 23 -27.52 23 -1 23 C-0.67 15.41 -0.34 7.82 0 0 Z " fill="#2CD1E2" transform="translate(370,26)"/>
<path d="M0 0 C0.44999862 2.41713545 0.66094771 4.55813619 0.75 7 C0.7816626 7.75168457 0.8133252 8.50336914 0.84594727 9.27783203 C0.93725649 12.18576568 0.97480939 15.09069796 1 18 C1.00867096 18.9824469 1.00867096 18.9824469 1.01751709 19.98474121 C1.04976994 24.50817162 1.03052399 29.0286781 0.96569824 33.55175781 C0.94692812 35.09822073 0.93770284 36.64482948 0.93811035 38.19140625 C0.93468125 40.39738085 0.89211693 42.59939574 0.83984375 44.8046875 C0.82300537 46.09358887 0.80616699 47.38249023 0.78881836 48.71044922 C0 52 0 52 -2.83691406 54.34692383 C-19.00132464 62.79468734 -40.31171634 65.17488248 -58 60 C-72.39243408 54.60756592 -72.39243408 54.60756592 -75 52 C-75.09340434 50.37325222 -75.11745171 48.74245949 -75.11352539 47.11303711 C-75.11344986 46.07203354 -75.11337433 45.03102997 -75.11329651 43.95848083 C-75.10813522 42.8262056 -75.10297394 41.69393036 -75.09765625 40.52734375 C-75.0962413 39.37456436 -75.09482635 38.22178497 -75.09336853 37.03407288 C-75.08775005 33.33518936 -75.07519442 29.63636536 -75.0625 25.9375 C-75.05748738 23.43684983 -75.05292406 20.93619871 -75.04882812 18.43554688 C-75.03777462 12.29034412 -75.02101852 6.14517631 -75 0 C-72.62294116 -1.13034307 -70.24381093 -2.25591513 -67.86328125 -3.37890625 C-67.19655396 -3.69653931 -66.52982666 -4.01417236 -65.84289551 -4.34143066 C-45.63493092 -13.8485141 -18.83704771 -12.55803181 0 0 Z " fill="#005AAF" transform="translate(401,342)"/>
<path d="M0 0 C0.73619064 -0.00570007 1.47238129 -0.01140015 2.23088074 -0.01727295 C3.78842741 -0.02671256 5.34599395 -0.03325281 6.90356445 -0.03710938 C9.27395961 -0.04679731 11.64348078 -0.07782175 14.01367188 -0.109375 C15.52994279 -0.11590741 17.04621988 -0.12115695 18.5625 -0.125 C19.26582962 -0.1373468 19.96915924 -0.1496936 20.69380188 -0.16241455 C25.35154764 -0.14156905 28.61443142 0.56906634 32.48046875 3.203125 C34.67237266 7.29320766 34.7713565 11.20665062 34.75512695 15.74389648 C34.76023788 16.48601379 34.76534882 17.2281311 34.77061462 17.99273682 C34.78447151 20.43664703 34.78355687 22.88027401 34.78125 25.32421875 C34.78513899 27.02905888 34.78947407 28.73389804 34.79423523 30.43873596 C34.80168897 34.00874983 34.80141224 37.57866479 34.79614258 41.14868164 C34.79034805 45.71619114 34.8072825 50.28329511 34.83048725 54.85073757 C34.84524191 58.37069554 34.84609396 61.89055621 34.84297752 65.41053963 C34.84348983 67.09419623 34.84871057 68.7778584 34.85878944 70.46148491 C34.87117083 72.81890862 34.8643526 75.17554719 34.8527832 77.53295898 C34.86424881 78.56882896 34.86424881 78.56882896 34.87594604 79.62562561 C34.82656559 84.19393782 33.88226655 87.32337995 31.48046875 91.203125 C27.41940412 93.72625279 22.94853711 93.5407501 18.29296875 93.57421875 C17.51284424 93.58324722 16.73271973 93.5922757 15.92895508 93.60157776 C14.2850323 93.61603834 12.64105251 93.62495654 10.99707031 93.62866211 C8.48794784 93.64058945 5.98126261 93.68983607 3.47265625 93.74023438 C1.87110569 93.74969637 0.26954011 93.75693248 -1.33203125 93.76171875 C-2.07799561 93.78125107 -2.82395996 93.80078339 -3.5925293 93.82090759 C-7.56281959 93.78664277 -9.32506987 93.35790531 -12.46875 90.85571289 C-15.7662529 86.59054991 -15.68182006 82.85932396 -15.71240234 77.68994141 C-15.72057983 76.92700272 -15.72875732 76.16406403 -15.73718262 75.37800598 C-15.76199299 72.85357443 -15.77853963 70.32919886 -15.79296875 67.8046875 C-15.79829243 66.94210705 -15.8036161 66.0795266 -15.8091011 65.19080734 C-15.8358112 60.62688842 -15.85519465 56.06299667 -15.86962891 51.49902344 C-15.88298044 47.72175954 -15.91085789 43.94503429 -15.95166016 40.16796875 C-16.00093744 35.60625903 -16.02574346 31.04503872 -16.03285599 26.48307419 C-16.03957322 24.74551424 -16.05480767 23.00796542 -16.0787468 21.2705574 C-16.11035525 18.83815734 -16.11044273 16.40764903 -16.10302734 13.97509766 C-16.11943268 13.25907883 -16.13583801 12.54306 -16.15274048 11.80534363 C-16.10460416 7.94415234 -15.62003553 6.32820073 -13.17056274 3.27987671 C-8.91975046 -0.05010322 -5.17750541 0.03101733 0 0 Z " fill="#FEFEFE" transform="translate(96.51953125,260.796875)"/>
<path d="M0 0 C0.73619064 -0.00570007 1.47238129 -0.01140015 2.23088074 -0.01727295 C3.78842741 -0.02671256 5.34599395 -0.03325281 6.90356445 -0.03710938 C9.27395961 -0.04679731 11.64348078 -0.07782175 14.01367188 -0.109375 C15.52994279 -0.11590741 17.04621988 -0.12115695 18.5625 -0.125 C19.26582962 -0.1373468 19.96915924 -0.1496936 20.69380188 -0.16241455 C25.35154764 -0.14156905 28.61443142 0.56906634 32.48046875 3.203125 C34.67237266 7.29320766 34.7713565 11.20665062 34.75512695 15.74389648 C34.76023788 16.48601379 34.76534882 17.2281311 34.77061462 17.99273682 C34.78447151 20.43664703 34.78355687 22.88027401 34.78125 25.32421875 C34.78513899 27.02905888 34.78947407 28.73389804 34.79423523 30.43873596 C34.80168897 34.00874983 34.80141224 37.57866479 34.79614258 41.14868164 C34.79034805 45.71619114 34.8072825 50.28329511 34.83048725 54.85073757 C34.84524191 58.37069554 34.84609396 61.89055621 34.84297752 65.41053963 C34.84348983 67.09419623 34.84871057 68.7778584 34.85878944 70.46148491 C34.87117083 72.81890862 34.8643526 75.17554719 34.8527832 77.53295898 C34.86424881 78.56882896 34.86424881 78.56882896 34.87594604 79.62562561 C34.82656691 84.19381563 33.88415199 87.32436552 31.48046875 91.203125 C27.51630973 93.64095333 23.29888664 93.50981637 18.765625 93.50390625 C17.66558388 93.51033394 17.66558388 93.51033394 16.5433197 93.51689148 C14.99772165 93.52261466 13.45209667 93.52314991 11.90649414 93.51879883 C9.55372763 93.51563945 7.20222064 93.5391192 4.84960938 93.56445312 C3.34244949 93.56672655 1.83528625 93.56742941 0.328125 93.56640625 C-0.36893051 93.575616 -1.06598602 93.58482574 -1.78416443 93.59431458 C-6.41530752 93.55087863 -9.67325164 92.81614287 -13.51953125 90.203125 C-15.74632009 86.06624895 -15.82164581 82.05534972 -15.82592773 77.46289062 C-15.83425125 76.69965988 -15.84257477 75.93642914 -15.85115051 75.15007019 C-15.87517376 72.63645273 -15.88401164 70.12309494 -15.890625 67.609375 C-15.89959478 65.85729903 -15.90871669 64.10522383 -15.91798401 62.35314941 C-15.93445396 58.68479553 -15.9421709 55.01653273 -15.94506836 51.34814453 C-15.95046059 46.65029145 -15.98818328 41.95329478 -16.03381252 37.2556839 C-16.06356375 33.63882318 -16.07079143 30.0221696 -16.07179451 26.40519714 C-16.07599805 24.67323367 -16.08843779 22.94126966 -16.10931206 21.20942688 C-16.13619738 18.78676289 -16.13141193 16.36609682 -16.11889648 13.94335938 C-16.13373077 13.23048264 -16.14856506 12.5176059 -16.16384888 11.78312683 C-16.10724527 7.93154218 -15.61460453 6.32131176 -13.16957092 3.28186035 C-8.92024904 -0.05137866 -5.17791095 0.03101976 0 0 Z " fill="#FFFEFE" transform="translate(96.51953125,143.796875)"/>
<path d="M0 0 C0.73336075 -0.00428513 1.4667215 -0.00857025 2.2223053 -0.01298523 C3.76790335 -0.01870841 5.31352833 -0.01924366 6.85913086 -0.01489258 C9.21189737 -0.0117332 11.56340436 -0.03521295 13.91601562 -0.06054688 C15.42317551 -0.0628203 16.93033875 -0.06352316 18.4375 -0.0625 C19.13455551 -0.07170975 19.83161102 -0.08091949 20.54978943 -0.09040833 C25.18093252 -0.04697238 28.43887664 0.68776338 32.28515625 3.30078125 C34.47754023 7.39051816 34.57604347 11.30445425 34.55981445 15.84155273 C34.56492538 16.58367004 34.57003632 17.32578735 34.57530212 18.09039307 C34.58915901 20.53430328 34.58824437 22.97793026 34.5859375 25.421875 C34.58982649 27.12671513 34.59416157 28.83155429 34.59892273 30.53639221 C34.60637647 34.10640608 34.60609974 37.67632104 34.60083008 41.24633789 C34.59503555 45.81384739 34.61197 50.38095136 34.63517475 54.94839382 C34.64992941 58.46835179 34.65078146 61.98821246 34.64766502 65.50819588 C34.64817733 67.19185248 34.65339807 68.87551465 34.66347694 70.55914116 C34.67585833 72.91656487 34.6690401 75.27320344 34.6574707 77.63061523 C34.66893631 78.66648521 34.66893631 78.66648521 34.68063354 79.72328186 C34.63125441 84.29147188 33.68883949 87.42202177 31.28515625 91.30078125 C27.32099723 93.73860958 23.10357414 93.60747262 18.5703125 93.6015625 C17.47027138 93.60799019 17.47027138 93.60799019 16.3480072 93.61454773 C14.80240915 93.62027091 13.25678417 93.62080616 11.71118164 93.61645508 C9.35841513 93.6132957 7.00690814 93.63677545 4.65429688 93.66210938 C3.14713699 93.6643828 1.63997375 93.66508566 0.1328125 93.6640625 C-0.56424301 93.67327225 -1.26129852 93.68248199 -1.97947693 93.69197083 C-6.61062002 93.64853488 -9.86856414 92.91379912 -13.71484375 90.30078125 C-15.90722773 86.21104434 -16.00573097 82.29710825 -15.98950195 77.76000977 C-15.99461288 77.01789246 -15.99972382 76.27577515 -16.00498962 75.51116943 C-16.01884651 73.06725922 -16.01793187 70.62363224 -16.015625 68.1796875 C-16.01951399 66.47484737 -16.02384907 64.77000821 -16.02861023 63.06517029 C-16.03606397 59.49515642 -16.03578724 55.92524146 -16.03051758 52.35522461 C-16.02472305 47.78771511 -16.0416575 43.22061114 -16.06486225 38.65316868 C-16.07961691 35.13321071 -16.08046896 31.61335004 -16.07735252 28.09336662 C-16.07786483 26.40971002 -16.08308557 24.72604785 -16.09316444 23.04242134 C-16.10554583 20.68499763 -16.0987276 18.32835906 -16.0871582 15.97094727 C-16.09480194 15.28036728 -16.10244568 14.58978729 -16.11032104 13.87828064 C-16.06094191 9.31009062 -15.11852699 6.17954073 -12.71484375 2.30078125 C-8.75068473 -0.13704708 -4.53326164 -0.00591012 0 0 Z " fill="#FFFEFE" transform="translate(396.71484375,143.69921875)"/>
<path d="M0 0 C1.21676013 0.00478678 1.21676013 0.00478678 2.45810127 0.00967026 C5.25530514 0.02411166 8.05186131 0.06008641 10.84887695 0.09521484 C12.90597043 0.10984863 14.9630753 0.12294258 17.02018738 0.13467407 C21.74341973 0.16357035 26.46650072 0.20103498 31.18963623 0.24279785 C40.18354706 0.31808501 49.17747165 0.34966997 58.17163086 0.37939453 C74.00567296 0.4331874 89.83952422 0.50676811 105.67341805 0.59373093 C115.85605085 0.6494369 126.0386715 0.69850197 136.22137529 0.73929536 C143.48603077 0.76895778 150.7506244 0.80612764 158.01521415 0.8489424 C162.32044568 0.87410552 166.62563274 0.89592614 170.93091774 0.90949631 C174.9361947 0.92225378 178.94131167 0.94423741 182.94650078 0.97353554 C184.41472277 0.9826339 185.88297044 0.98830678 187.35121918 0.99036598 C189.34708192 0.99366943 191.34290964 1.01028805 193.33869934 1.02767944 C195.01420978 1.03597558 195.01420978 1.03597558 196.72356892 1.04443932 C199.3371582 1.30615234 199.3371582 1.30615234 201.3371582 3.30615234 C201.58939479 5.83731721 201.70739483 8.21191877 201.7121582 10.74365234 C201.73665039 11.42492187 201.76114258 12.10619141 201.78637695 12.80810547 C201.81553821 17.77037978 201.81553821 17.77037978 199.82356358 20.00133705 C196.30094729 21.84993489 192.977155 21.72025411 189.09373474 21.68710327 C188.25530551 21.69178324 187.41687627 21.69646322 186.55304009 21.701285 C183.73930145 21.71326574 180.92604708 21.70376581 178.11230469 21.69433594 C176.09690059 21.69840024 174.08149871 21.70374132 172.06610107 21.71026611 C166.58898305 21.72396143 161.11203425 21.71863212 155.63491321 21.70912886 C149.90944121 21.7015448 144.18398391 21.70857428 138.45851135 21.71328735 C128.84389641 21.71874812 119.22935055 21.71154439 109.61474609 21.69726562 C98.48908881 21.68093389 87.36359641 21.68623017 76.23794311 21.70274484 C66.69478041 21.71634502 57.15166742 21.7182867 47.60849816 21.71042883 C41.90472177 21.70574483 36.20102296 21.7051475 30.49725151 21.7150383 C25.13662342 21.72368449 19.77620861 21.71772909 14.41560364 21.70035553 C12.44470639 21.69637831 10.47379129 21.69754573 8.50290108 21.70414352 C5.81955518 21.7123003 3.13689953 21.70210893 0.45359802 21.68710327 C-0.33257937 21.69379544 -1.11875677 21.7004876 -1.92875773 21.70738256 C-7.14046346 21.65056498 -7.14046346 21.65056498 -9.64521694 19.99913979 C-11.36666181 17.13523121 -11.09335401 14.04436496 -11.0378418 10.80615234 C-11.04944336 10.12939453 -11.06104492 9.45263672 -11.07299805 8.75537109 C-11.05722467 6.08967112 -11.03892171 3.91654636 -9.61686707 1.60848999 C-6.59412858 -0.40613397 -3.50732931 -0.06688428 0 0 Z " fill="#FCB009" transform="translate(160.662841796875,165.69384765625)"/>
<path d="M0 0 C1.19633138 0.00566899 1.19633138 0.00566899 2.41683108 0.0114525 C3.68416231 0.00571418 3.68416231 0.00571418 4.9770962 -0.00014007 C7.82458817 -0.01050662 10.67187987 -0.00647103 13.5193854 -0.0025093 C15.55419769 -0.00685375 17.58900835 -0.012036 19.62381655 -0.01799697 C25.16299742 -0.0314269 30.70211023 -0.03196121 36.24130422 -0.02943367 C40.85886732 -0.02836665 45.47641649 -0.03324039 50.09397662 -0.03803909 C60.9839997 -0.0491481 71.87398829 -0.04956386 82.7640143 -0.04352492 C94.01345446 -0.03748277 105.26276961 -0.04979912 116.51218843 -0.07109499 C126.15721456 -0.08868497 135.8022008 -0.09471647 145.44724238 -0.09145725 C151.21365387 -0.08964008 156.9799762 -0.09232359 162.74637324 -0.10617179 C168.16769965 -0.11870323 173.58883058 -0.1168506 179.01015383 -0.1037609 C181.00362945 -0.10138531 182.99711862 -0.10416468 184.99057871 -0.11238402 C187.70467035 -0.12277049 190.41809616 -0.11481651 193.13216311 -0.10207289 C193.92748664 -0.10944718 194.72281017 -0.11682146 195.54223442 -0.12441921 C200.81976588 -0.07201825 200.81976588 -0.07201825 203.32595068 1.59241277 C205.01048699 4.38833137 204.73305894 7.06094433 204.71298891 10.27214891 C204.72072329 11.50964891 204.72845766 12.74714891 204.73642641 14.02214891 C204.33798891 17.27214891 204.33798891 17.27214891 203.32595068 18.95188504 C200.165024 21.05114939 196.80113968 20.68038967 193.13216311 20.64637071 C191.86249189 20.65233232 191.86249189 20.65233232 190.56717074 20.65841436 C187.72034417 20.66806738 184.87401082 20.65620121 182.0271979 20.64446336 C179.9906156 20.64689032 177.95403449 20.6506087 175.91745669 20.65552598 C170.37835718 20.66495118 164.83943387 20.65549616 159.3003481 20.64219385 C153.51301369 20.63090107 147.72568823 20.63498514 141.93834597 20.63694078 C132.21939873 20.63782437 122.50052116 20.6267291 112.78159243 20.60833055 C101.53156353 20.587156 90.28163668 20.58365393 79.03159189 20.58989251 C68.22524858 20.5955791 57.41894135 20.58994921 46.61260325 20.57871896 C42.00616516 20.57406423 37.39974908 20.57320288 32.79330927 20.57530481 C27.37363773 20.57718285 21.95407066 20.56912125 16.53442293 20.55324441 C14.54053148 20.54898732 12.54662946 20.54816051 10.55273539 20.55093461 C7.84065108 20.55413657 5.12888286 20.54512516 2.41683108 20.53284532 C1.61927682 20.53662464 0.82172257 20.54040397 0 20.54429781 C-5.43368202 20.50047797 -5.43368202 20.50047797 -7.66201109 18.27214891 C-7.8605321 15.5629209 -7.94040586 12.97911711 -7.91201109 10.27214891 C-7.91974546 9.53480516 -7.92747984 8.79746141 -7.93544859 8.03777391 C-7.91075646 1.27213035 -6.74213446 0.05437183 0 0 Z " fill="#FEB106" transform="translate(157.66201108694077,59.7278510928154)"/>
<path d="M0 0 C9.57 0 19.14 0 29 0 C29 21.78 29 43.56 29 66 C24.545 66.495 24.545 66.495 20 67 C16.74097068 69.83223972 16.74097068 69.83223972 17 80 C-2.14 80 -21.28 80 -41 80 C-41 65.48 -41 50.96 -41 36 C-24.8125 35.625 -24.8125 35.625 -19.72973633 35.52197266 C-18.38881502 35.48674138 -17.04791166 35.45081734 -15.70703125 35.4140625 C-14.67660706 35.39702271 -14.67660706 35.39702271 -13.62536621 35.37963867 C-9.70189525 35.26205496 -6.40214355 35.04229372 -3 33 C-0.81706066 29.24758112 -0.70316388 25.66548171 -0.5859375 21.38671875 C-0.55032715 20.26225342 -0.5147168 19.13778809 -0.47802734 17.97924805 C-0.44402832 16.56297119 -0.4100293 15.14669434 -0.375 13.6875 C-0.25125 9.170625 -0.1275 4.65375 0 0 Z " fill="#FF5757" transform="translate(131,318)"/>
<path d="M0 0 C16.83 0 33.66 0 51 0 C51 23.43 51 46.86 51 71 C42.42 71.33 33.84 71.66 25 72 C19.20740531 74.89629734 17.88455856 75.65822488 15 81 C14.67 82.65 14.34 84.3 14 86 C9.38 86 4.76 86 0 86 C0 57.62 0 29.24 0 0 Z " fill="#5290D9" transform="translate(261,187)"/>
<path d="M0 0 C23.1 0 46.2 0 70 0 C70 4.62 70 9.24 70 14 C66.98552734 14.09087891 66.98552734 14.09087891 63.91015625 14.18359375 C61.97077331 14.24615449 60.03139127 14.30874857 58.09204102 14.37231445 C56.74085853 14.41571223 55.38961947 14.4573837 54.03833008 14.49731445 C52.09963299 14.55489952 50.16113724 14.61914298 48.22265625 14.68359375 C47.05484619 14.72025146 45.88703613 14.75690918 44.68383789 14.79467773 C42.08220205 14.70076188 42.08220205 14.70076188 41 16 C40.87598086 18.17731389 40.8219849 20.35863454 40.79467773 22.53930664 C40.78477814 23.22220261 40.77487854 23.90509857 40.76467896 24.60868835 C40.73298065 26.87580853 40.70827387 29.14294969 40.68359375 31.41015625 C40.6630314 32.97815001 40.64203512 34.54613813 40.62062073 36.11412048 C40.56532576 40.24870248 40.51594938 44.38333511 40.46777344 48.51800537 C40.40879911 53.47482107 40.34253047 58.43154389 40.27747345 63.38828278 C40.17937055 70.9254653 40.09057857 78.46270636 40 86 C26.8 86 13.6 86 0 86 C0 57.62 0 29.24 0 0 Z " fill="#FFC143" transform="translate(160,80)"/>
<path d="M0 0 C15.91874077 -0.28076167 15.91874077 -0.28076167 22.83984375 -0.34179688 C27.51572051 -0.38323143 32.19061545 -0.43158106 36.86572266 -0.52807617 C54.72046542 -0.88700896 70.50142132 -0.81666842 87 7 C91.88249921 9.08452478 96.07246442 9.39568259 101.35546875 9.65625 C104 10 104 10 106 12 C106.45815988 16.12751148 106.32400858 20.28750768 106.3125 24.4375 C106.32861328 25.59572266 106.34472656 26.75394531 106.36132812 27.94726562 C106.36197266 29.05650391 106.36261719 30.16574219 106.36328125 31.30859375 C106.36626221 32.32751709 106.36924316 33.34644043 106.37231445 34.39624023 C106 37 106 37 104.91960144 38.63847351 C101.98520073 40.71977237 99.47809872 40.38163449 95.9140625 40.38818359 C94.83798737 40.39606903 94.83798737 40.39606903 93.74017334 40.40411377 C91.36822758 40.41732045 88.99695262 40.40857376 86.625 40.3984375 C84.97737499 40.40045805 83.32975085 40.40336934 81.68212891 40.40713501 C78.22875454 40.41155925 74.77561294 40.40512421 71.32226562 40.39111328 C66.8933764 40.37402118 62.46503254 40.38386185 58.03616333 40.40183067 C54.63382856 40.4126659 51.23162331 40.40922341 47.82928467 40.4014473 C46.19618668 40.39944456 44.56307698 40.40190716 42.92999268 40.40888596 C40.64832362 40.41649634 38.36754048 40.40490309 36.0859375 40.38818359 C34.1376001 40.38460342 34.1376001 40.38460342 32.14990234 40.38095093 C29 40 29 40 27.05712891 38.91323853 C26 37 26 37 26 30 C17.42 30 8.84 30 0 30 C0 20.1 0 10.2 0 0 Z " fill="#005AAF" transform="translate(264,10)"/>
<path d="M0 0 C11.7871875 -0.0928125 11.7871875 -0.0928125 23.8125 -0.1875 C27.53043823 -0.22846802 27.53043823 -0.22846802 31.32348633 -0.27026367 C33.28466301 -0.27902421 35.24584512 -0.28666917 37.20703125 -0.29296875 C38.2280896 -0.30831665 39.24914795 -0.32366455 40.30114746 -0.33947754 C41.27531616 -0.33984009 42.24948486 -0.34020264 43.25317383 -0.34057617 C44.09922684 -0.34723801 44.94527985 -0.35389984 45.81697083 -0.36076355 C48 0 48 0 49.77539062 1.10412598 C51.61713737 3.95541871 51.35900086 6.30284297 51.34057617 9.67456055 C51.34123329 10.68471222 51.34123329 10.68471222 51.34190369 11.715271 C51.33981501 13.93938269 51.3164815 16.16273888 51.29296875 18.38671875 C51.28737305 19.92942391 51.28310283 21.4721344 51.28010559 23.0148468 C51.26865471 27.07397191 51.23918569 31.13277466 51.20599365 35.19177246 C51.16990038 40.06257719 51.15613275 44.93348975 51.13863373 49.80438995 C51.10954818 57.2031508 51.05206346 64.6012044 51 72 C34.17 72 17.34 72 0 72 C0 48.24 0 24.48 0 0 Z " fill="#5290D8" transform="translate(261,94)"/>
<path d="M0 0 C13.2 0 26.4 0 40 0 C40 30.03 40 60.06 40 91 C26.8 91 13.6 91 0 91 C0 60.97 0 30.94 0 0 Z " fill="#FFC143" transform="translate(160,293)"/>
<path d="M0 0 C10.23 0 20.46 0 31 0 C31.375 13.6875 31.375 13.6875 31.47802734 17.97924805 C31.5136377 19.10371338 31.54924805 20.22817871 31.5859375 21.38671875 C31.63306885 23.10701294 31.63306885 23.10701294 31.68115234 24.86206055 C32.00934699 28.09198837 32.34260306 30.20617942 34 33 C35.98 33.99 37.96 34.98 40 36 C40 50.52 40 65.04 40 80 C26.8 80 13.6 80 0 80 C0 53.6 0 27.2 0 0 Z " fill="#F72C2C" transform="translate(50,318)"/>
<path d="M0 0 C13.2 0 26.4 0 40 0 C40 23.43 40 46.86 40 71 C26.8 71 13.6 71 0 71 C0 47.57 0 24.14 0 0 Z " fill="#FFCD6B" transform="translate(312,187)"/>
<path d="M0 0 C0.90520071 0.00184359 1.81040142 0.00368717 2.74303246 0.00558662 C3.78072273 0.0028373 4.81841301 0.00008797 5.88754845 -0.00274467 C7.60197388 0.00804115 7.60197388 0.00804115 9.35103416 0.01904488 C11.15100601 0.0186068 11.15100601 0.0186068 12.98734093 0.01815987 C16.28266962 0.01931654 19.57774939 0.02936419 22.873034 0.04330778 C26.31502395 0.05578909 29.75701702 0.05698358 33.19902611 0.0593586 C39.7190712 0.06558103 46.23904942 0.08200213 52.75906503 0.10205758 C60.18096804 0.12439287 67.60287421 0.13540403 75.02480245 0.14544845 C90.2942307 0.16636774 105.56358799 0.20196016 120.83296776 0.24609566 C120.83296776 6.84609566 120.83296776 13.44609566 120.83296776 20.24609566 C104.83030833 20.29235067 88.82767637 20.32806284 72.82496643 20.34972 C65.39499324 20.3600421 57.96506228 20.37412019 50.5351162 20.39697456 C44.06080993 20.41687995 37.58653425 20.4298053 31.11219823 20.43427265 C27.68260245 20.43688488 24.25309418 20.44304398 20.82352638 20.45755577 C16.99934535 20.47360676 13.17525072 20.47407718 9.35103416 20.47314644 C8.20808388 20.48033699 7.06513359 20.48752754 5.88754845 20.49493599 C4.84985817 20.49218666 3.81216789 20.48943733 2.74303246 20.48660469 C1.83783175 20.48844828 0.93263103 20.49029186 0 20.49219131 C-2.16703224 20.24609566 -2.16703224 20.24609566 -4.16703224 18.24609566 C-4.36555326 15.53686765 -4.44542701 12.95306386 -4.41703224 10.24609566 C-4.42476662 9.50875191 -4.43250099 8.77140816 -4.44046974 8.01172066 C-4.41305894 0.5011622 -4.41305894 0.5011622 0 0 Z " fill="#FFAE03" transform="translate(154.1670322418213,272.75390434265137)"/>
<path d="M0 0 C15.35073277 -0.04625642 30.7014575 -0.08196793 46.05224419 -0.10362434 C53.17954757 -0.11394612 60.30680691 -0.12802361 67.43408203 -0.15087891 C74.30698186 -0.17290803 81.17983581 -0.18455525 88.05276871 -0.18975449 C90.68032681 -0.19346163 93.3078823 -0.20070029 95.93542099 -0.21146011 C99.60397597 -0.225891 103.27233936 -0.22798147 106.94091797 -0.22705078 C108.03711456 -0.23424133 109.13331116 -0.24143188 110.26272583 -0.24884033 C111.75615509 -0.24471634 111.75615509 -0.24471634 113.27975464 -0.24050903 C114.14808363 -0.24235262 115.01641262 -0.24419621 115.91105461 -0.24609566 C118 0 118 0 120 2 C120.19852102 4.70922801 120.27839477 7.29303179 120.25 10 C120.26160156 11.10601562 120.26160156 11.10601562 120.2734375 12.234375 C120.2533196 17.7466804 120.2533196 17.7466804 118 20 C115.91105461 20.24609566 115.91105461 20.24609566 113.27975464 20.24050903 C112.28413513 20.24325836 111.28851563 20.24600769 110.26272583 20.24884033 C109.16652924 20.24164978 108.07033264 20.23445923 106.94091797 20.22705078 C105.78970459 20.22734283 104.63849121 20.22763489 103.45239258 20.22793579 C99.63224858 20.22653807 95.81229759 20.21095592 91.9921875 20.1953125 C89.34945787 20.19158395 86.70672686 20.18873623 84.06399536 20.18673706 C77.80956866 20.18051494 71.55521167 20.16409429 65.3008157 20.14403808 C58.1812048 20.12170179 51.06159062 20.11069137 43.94195342 20.10064721 C29.29459872 20.07972866 14.64730267 20.04413677 0 20 C0 13.4 0 6.8 0 0 Z " fill="#F62C2C" transform="translate(352,94)"/>
<path d="M0 0 C0.86832899 0.00184359 1.73665798 0.00368717 2.63129997 0.00558662 C3.62691948 0.0028373 4.62253899 0.00008797 5.64832878 -0.00274467 C7.29262367 0.00804115 7.29262367 0.00804115 8.97013664 0.01904488 C10.12135002 0.01875282 11.2725634 0.01846077 12.45866203 0.01815987 C16.27880603 0.01955759 20.09875702 0.03513974 23.91886711 0.05078316 C26.56159674 0.05451171 29.20432775 0.05735942 31.84705925 0.0593586 C38.10148595 0.06558071 44.35584294 0.08200137 50.61023891 0.10205758 C57.72984981 0.12439387 64.84946399 0.13540428 71.96910119 0.14544845 C86.61645589 0.166367 101.26375194 0.20195889 115.91105461 0.24609566 C115.91105461 6.84609566 115.91105461 13.44609566 115.91105461 20.24609566 C100.56032184 20.29235208 85.20959712 20.32806359 69.85881042 20.34972 C62.73150704 20.36004178 55.6042477 20.37411926 48.47697258 20.39697456 C41.60407275 20.41900368 34.7312188 20.43065091 27.8582859 20.43585014 C25.2307278 20.43955729 22.60317231 20.44679595 19.97563362 20.45755577 C16.30707864 20.47198666 12.63871525 20.47407713 8.97013664 20.47314644 C7.32584175 20.48393227 7.32584175 20.48393227 5.64832878 20.49493599 C4.15489952 20.490812 4.15489952 20.490812 2.63129997 20.48660469 C1.32880649 20.48937007 1.32880649 20.48937007 0 20.49219131 C-2.08894539 20.24609566 -2.08894539 20.24609566 -4.08894539 18.24609566 C-4.28746641 15.53686765 -4.36734016 12.95306386 -4.33894539 10.24609566 C-4.34667976 9.50875191 -4.35441414 8.77140816 -4.36238289 8.01172066 C-4.3350069 0.51070094 -4.3350069 0.51070094 0 0 Z " fill="#F62B2B" transform="translate(44.088945388793945,93.75390434265137)"/>
<path d="M0 0 C8.25 0 16.5 0 25 0 C25 30.03 25 60.06 25 91 C16.75 91 8.5 91 0 91 C0 60.97 0 30.94 0 0 Z " fill="#0573CF" transform="translate(200,293)"/>
<path d="M0 0 C8.25 0 16.5 0 25 0 C25 28.38 25 56.76 25 86 C16.75 86 8.5 86 0 86 C0 57.62 0 29.24 0 0 Z " fill="#0573CF" transform="translate(200,187)"/>
<path d="M0 0 C11.55 0 23.1 0 35 0 C17.49440005 20.42319994 -5.08944344 35.29645308 -28.6875 47.875 C-29.48115967 48.30304932 -30.27481934 48.73109863 -31.0925293 49.17211914 C-38.9131791 53.2375311 -46.55905197 55.83464449 -55 59 C-55 45.8 -55 32.6 -55 19 C-49.40417969 18.92652344 -49.40417969 18.92652344 -43.6953125 18.8515625 C-40.09452188 18.79760065 -36.49379953 18.74027429 -32.89306641 18.68261719 C-30.38465429 18.64426127 -27.87618592 18.60942025 -25.36767578 18.578125 C-21.76834971 18.53261791 -18.16941317 18.4746 -14.5703125 18.4140625 C-13.44319855 18.40251129 -12.31608459 18.39096008 -11.15481567 18.37905884 C-10.11388763 18.35918915 -9.07295959 18.33931946 -8.00048828 18.31884766 C-7.08115509 18.30552399 -6.1618219 18.29220032 -5.21463013 18.2784729 C-2.79533048 18.20423949 -2.79533048 18.20423949 -1 16 C-0.67 10.72 -0.34 5.44 0 0 Z " fill="#00C53A" transform="translate(402,437)"/>
<path d="M0 0 C0.79047729 -0.00043808 1.58095459 -0.00087616 2.39538574 -0.00132751 C5.00904004 0.00076307 7.62205342 0.02410641 10.2355957 0.04760742 C12.04734446 0.05320243 13.85909775 0.05747298 15.67085266 0.06047058 C20.44016036 0.07192688 25.20919412 0.1014008 29.97839355 0.13458252 C34.84468886 0.16526649 39.71102842 0.17897234 44.57739258 0.1940918 C54.12634108 0.22626976 63.67508624 0.2774756 73.22387695 0.34057617 C72.56387695 1.33057617 71.90387695 2.32057617 71.22387695 3.34057617 C70.9182485 5.30244042 70.9182485 5.30244042 70.95825195 7.43041992 C70.95567383 8.21481445 70.9530957 8.99920898 70.95043945 9.80737305 C70.96204102 11.03037109 70.96204102 11.03037109 70.97387695 12.27807617 C70.96614258 13.08954102 70.9584082 13.90100586 70.95043945 14.73706055 C70.95430664 15.91558594 70.95430664 15.91558594 70.95825195 17.11791992 C70.96163574 18.18901001 70.96163574 18.18901001 70.96508789 19.28173828 C71.26229395 21.64620871 72.12220575 23.24510103 73.22387695 25.34057617 C62.71464328 25.41002357 52.20546401 25.46336065 41.69604778 25.49601269 C36.81632583 25.51168241 31.93676063 25.53294448 27.05712891 25.56689453 C22.34982063 25.59944145 17.64266333 25.61741934 12.93525124 25.6252079 C11.1374556 25.63075982 9.33966841 25.64160111 7.54193687 25.65776634 C5.02777491 25.6794788 2.51424032 25.68254573 0 25.68115234 C-0.74662399 25.69193817 -1.49324799 25.702724 -2.26249695 25.71383667 C-7.29341238 25.68357802 -7.29341238 25.68357802 -9.73786926 23.9466095 C-11.08770123 21.85860833 -11.16354151 20.47558384 -11.17456055 17.99682617 C-11.17842773 17.16280273 -11.18229492 16.3287793 -11.1862793 15.46948242 C-11.16887695 14.16817383 -11.16887695 14.16817383 -11.15112305 12.84057617 C-11.16272461 11.97303711 -11.17432617 11.10549805 -11.1862793 10.21166992 C-11.18047852 8.96063477 -11.18047852 8.96063477 -11.17456055 7.68432617 C-11.17117676 6.92313477 -11.16779297 6.16194336 -11.16430664 5.37768555 C-10.02437228 -0.60446054 -5.07533913 -0.07331901 0 0 Z " fill="#FDE0A7" transform="translate(120.776123046875,430.659423828125)"/>
<path d="M0 0 C1.07878418 0.01047363 2.15756836 0.02094727 3.26904297 0.03173828 C5.01894531 0.04140625 5.01894531 0.04140625 6.80419922 0.05126953 C8.02751953 0.06802734 9.25083984 0.08478516 10.51123047 0.10205078 C11.74228516 0.11107422 12.97333984 0.12009766 14.24169922 0.12939453 C17.29006862 0.1530253 20.33805429 0.18597024 23.38623047 0.22705078 C22.39623047 0.72205078 22.39623047 0.72205078 21.38623047 1.22705078 C21.05623047 24.65705078 20.72623047 48.08705078 20.38623047 72.22705078 C12.13623047 72.22705078 3.88623047 72.22705078 -4.61376953 72.22705078 C-4.65890133 63.13472973 -4.69561688 54.04248272 -4.71739388 44.95007515 C-4.72784418 40.72839328 -4.74202598 36.50679183 -4.76464844 32.28515625 C-4.78633256 28.21327801 -4.79832876 24.14147726 -4.80352402 20.06954575 C-4.80722777 18.51375991 -4.81445999 16.95797846 -4.82522964 15.40222549 C-4.83968591 13.22801704 -4.84174997 11.05413137 -4.84082031 8.87988281 C-4.84526154 7.64078156 -4.84970276 6.4016803 -4.85427856 5.12503052 C-4.53921312 1.32869381 -3.84150895 0.33370104 0 0 Z " fill="#0573CE" transform="translate(204.61376953125,93.77294921875)"/>
<path d="M0 0 C0.33 0 0.66 0 1 0 C1 6.6 1 13.2 1 20 C18.82 20 36.64 20 55 20 C54.01 21.485 54.01 21.485 53 23 C52.67 29.93 52.34 36.86 52 44 C28.9 44 5.8 44 -18 44 C-18 37.07 -18 30.14 -18 23 C-15 20 -15 20 -11.42578125 19.70703125 C-10.05434322 19.72411224 -8.68314974 19.76296901 -7.3125 19.8125 C-4.899375 19.874375 -2.48625 19.93625 0 20 C0 13.4 0 6.8 0 0 Z " fill="#FDCD6B" transform="translate(148,387)"/>
<path d="M0 0 C1.26108078 0.00015106 2.52216156 0.00030212 3.82145691 0.00045776 C5.19778603 0.01067102 6.57411353 0.02110301 7.95043945 0.03173828 C9.35862528 0.03546906 10.7668137 0.03831572 12.17500305 0.04031372 C15.87894881 0.04794514 19.58273738 0.0675893 23.28662109 0.08972168 C27.06711704 0.11019075 30.84763842 0.1193177 34.62817383 0.12939453 C42.04426936 0.15083577 49.46020297 0.18601378 56.8762207 0.22705078 C56.8762207 7.81705078 56.8762207 15.40705078 56.8762207 23.22705078 C35.0962207 23.22705078 13.3162207 23.22705078 -9.1237793 23.22705078 C-9.1237793 16.29705078 -9.1237793 9.36705078 -9.1237793 2.22705078 C-5.59760286 -0.12373351 -4.17213049 -0.01665521 0 0 Z " fill="#FFE0A7" transform="translate(218.123779296875,383.77294921875)"/>
<path d="M0 0 C9.9 0 19.8 0 30 0 C30 15.51 30 31.02 30 47 C20.1 47 10.2 47 0 47 C0 31.49 0 15.98 0 0 Z " fill="#FFCC6A" transform="translate(91,297)"/>
<path d="M0 0 C9.9 0 19.8 0 30 0 C30 15.51 30 31.02 30 47 C20.1 47 10.2 47 0 47 C0 31.49 0 15.98 0 0 Z " fill="#FFC143" transform="translate(391,180)"/>
<path d="M0 0 C9.9 0 19.8 0 30 0 C30 15.51 30 31.02 30 47 C20.1 47 10.2 47 0 47 C0 31.49 0 15.98 0 0 Z " fill="#FFC143" transform="translate(91,180)"/>
<path d="M0 0 C1.04164307 -0.00306152 2.08328613 -0.00612305 3.15649414 -0.00927734 C4.27403076 0.01312012 5.39156738 0.03551758 6.54296875 0.05859375 C7.70497803 0.07325684 8.8669873 0.08791992 10.06420898 0.10302734 C30.23181883 0.5339064 49.26276666 4.42045377 68.73046875 9.49609375 C68.73046875 9.82609375 68.73046875 10.15609375 68.73046875 10.49609375 C47.94046875 10.49609375 27.15046875 10.49609375 5.73046875 10.49609375 C5.73046875 20.39609375 5.73046875 30.29609375 5.73046875 40.49609375 C5.16796875 53.85546875 5.16796875 53.85546875 4.73046875 60.49609375 C0.11046875 60.49609375 -4.50953125 60.49609375 -9.26953125 60.49609375 C-9.36832501 52.59411277 -9.44096613 44.69249038 -9.48925781 36.79003906 C-9.50713025 34.10104909 -9.534976 31.41243549 -9.57128906 28.72363281 C-9.6197474 24.86121814 -9.64248751 20.99938167 -9.66015625 17.13671875 C-9.68080139 15.93243225 -9.70144653 14.72814575 -9.72271729 13.48736572 C-9.72301941 12.36650574 -9.72332153 11.24564575 -9.72363281 10.09082031 C-9.73251526 9.10486877 -9.74139771 8.11891724 -9.75054932 7.10308838 C-8.73478747 1.59791952 -5.21125547 -0.01047443 0 0 Z " fill="#0572CE" transform="translate(258.26953125,-0.49609375)"/>
<path d="M0 0 C6.6 0 13.2 0 20 0 C20 19.47 20 38.94 20 59 C5 65 5 65 0 65 C0 43.55 0 22.1 0 0 Z " fill="#B2CAEC" transform="translate(327,437)"/>
<path d="M0 0 C4.62 0 9.24 0 14 0 C14 30.03 14 60.06 14 91 C9.38 91 4.76 91 0 91 C0 76.81 0 62.62 0 48 C2.31 47.34 4.62 46.68 7 46 C8.28322547 44.9404123 8.28322547 44.9404123 8.125 42.5 C8.28322547 40.0595877 8.28322547 40.0595877 7 39 C4.69 38.67 2.38 38.34 0 38 C0 25.46 0 12.92 0 0 Z " fill="#518FD8" transform="translate(261,293)"/>
<path d="M0 0 C8.15518124 -0.06289343 16.30948542 -0.1229992 24.46469879 -0.15525055 C28.2622972 -0.17109906 32.05969508 -0.19228085 35.85717773 -0.22631836 C39.51410601 -0.2588913 43.1708397 -0.27684855 46.82790184 -0.28463173 C48.22378796 -0.29017901 49.61966331 -0.3010115 51.01546669 -0.31719017 C52.9689459 -0.33893429 54.92262051 -0.34022515 56.8762207 -0.34057617 C57.9887471 -0.34723801 59.1012735 -0.35389984 60.24751282 -0.36076355 C63 0 63 0 64.88273621 1.08378601 C66 3 66 3 66 10 C53.13 10.33 40.26 10.66 27 11 C26.67 17.27 26.34 23.54 26 30 C17.42 30 8.84 30 0 30 C0 20.1 0 10.2 0 0 Z " fill="#004B94" transform="translate(264,10)"/>
<path d="M0 0 C3.3 0 6.6 0 10 0 C10 12.54 10 25.08 10 38 C12.31 38 14.62 38 17 38 C19 40 19 40 19.3125 42.4375 C19 45 19 45 17.875 46.8125 C16 48 16 48 10 48 C10 62.19 10 76.38 10 91 C6.7 91 3.4 91 0 91 C0 76.81 0 62.62 0 48 C-1.98 48 -3.96 48 -6 48 C-7.875 46.8125 -7.875 46.8125 -9 45 C-9.3125 42.4375 -9.3125 42.4375 -9 40 C-8.34 39.34 -7.68 38.68 -7 38 C-4.69 38 -2.38 38 0 38 C0 25.46 0 12.92 0 0 Z " fill="#005AAF" transform="translate(251,293)"/>
<path d="M0 0 C18.15 0 36.3 0 55 0 C55 5.28 55 10.56 55 16 C52 19 52 19 49.66511536 19.36076355 C48.74800278 19.35410172 47.8308902 19.34743988 46.88598633 19.34057617 C45.84513382 19.34034958 44.80428131 19.34012299 43.73188782 19.33988953 C42.04895882 19.31666374 42.04895882 19.31666374 40.33203125 19.29296875 C39.18208176 19.28872391 38.03213226 19.28447906 36.84733582 19.28010559 C33.16882059 19.26329189 29.49085008 19.22563377 25.8125 19.1875 C23.32097144 19.17245669 20.82943432 19.15876767 18.33789062 19.14648438 C12.22505003 19.1133794 6.11261742 19.06157774 0 19 C0 12.73 0 6.46 0 0 Z " fill="#FEE6BE" transform="translate(347,437)"/>
<path d="M0 0 C0.79497894 0.00444122 1.58995789 0.00888245 2.4090271 0.01345825 C3.76020126 0.01368484 3.76020126 0.01368484 5.13867188 0.01391602 C6.11266937 0.02423859 7.08666687 0.03456116 8.09017944 0.04519653 C9.08617157 0.04802643 10.0821637 0.05085632 11.1083374 0.05377197 C14.29771813 0.06499063 17.48682072 0.09009822 20.67611694 0.11550903 C22.83496706 0.12553666 24.99382157 0.13466288 27.15267944 0.14285278 C32.45225393 0.16493543 37.75166557 0.19842945 43.05111694 0.24050903 C42.39111694 1.23050903 41.73111694 2.22050903 41.05111694 3.24050903 C40.73231508 6.56996928 40.73231508 6.56996928 40.80111694 10.24050903 C40.79596069 11.47800903 40.79080444 12.71550903 40.78549194 13.99050903 C40.79860333 17.38724048 40.79860333 17.38724048 43.05111694 20.24050903 C36.67908102 20.29110533 30.30709664 20.3261986 23.93490601 20.35037231 C21.765941 20.36044692 19.59698963 20.37410701 17.42807007 20.39138794 C14.31540569 20.41557226 11.20292043 20.42697736 8.09017944 20.43582153 C7.11618195 20.4461441 6.14218445 20.45646667 5.13867188 20.46710205 C4.2378891 20.46725311 3.33710632 20.46740417 2.4090271 20.46755981 C1.21655869 20.47422165 1.21655869 20.47422165 0 20.48101807 C-1.94888306 20.24050903 -1.94888306 20.24050903 -3.94888306 18.24050903 C-4.14740407 15.53128103 -4.22727783 12.94747724 -4.19888306 10.24050903 C-4.20661743 9.50316528 -4.21435181 8.76582153 -4.22232056 8.00613403 C-4.1949905 0.51769813 -4.1949905 0.51769813 0 0 Z " fill="#E32929" transform="translate(43.948883056640625,93.75949096679688)"/>
<path d="M0 0 C3.3 0 6.6 0 10 0 C10 28.38 10 56.76 10 86 C6.7 86 3.4 86 0 86 C0 57.62 0 29.24 0 0 Z " fill="#005AAF" transform="translate(251,187)"/>
<path d="M0 0 C1.10091476 0.00022659 2.20182953 0.00045319 3.33610535 0.00068665 C4.52367935 0.0161705 5.71125336 0.03165436 6.93481445 0.04760742 C8.15135208 0.05185226 9.36788971 0.05609711 10.62129211 0.06047058 C14.51378341 0.07728766 18.40576041 0.11494659 22.2980957 0.15307617 C24.93415594 0.16811904 27.57022429 0.18180813 30.20629883 0.1940918 C36.6745738 0.22720118 43.14254801 0.27743113 49.6105957 0.34057617 C49.13596821 2.65401208 48.65577292 4.96630636 48.1730957 7.27807617 C47.90625977 8.56584961 47.63942383 9.85362305 47.36450195 11.18041992 C46.6105957 14.34057617 46.6105957 14.34057617 45.6105957 15.34057617 C44.0725311 15.4598366 42.52908547 15.51067039 40.98657227 15.53344727 C40.00174866 15.54951019 39.01692505 15.56557312 38.0022583 15.5821228 C33.48401437 15.62644426 28.96592022 15.66765246 24.44750977 15.69067383 C22.06329584 15.70722636 19.67913139 15.73450678 17.29516602 15.77270508 C13.86358809 15.82743898 10.43317624 15.84934505 7.0012207 15.86401367 C5.93647522 15.88668304 4.87172974 15.90935242 3.77471924 15.93270874 C-3.59403135 15.91165347 -3.59403135 15.91165347 -7.60131836 13.03442383 C-9.3894043 10.34057617 -9.3894043 10.34057617 -9.3894043 6.71557617 C-7.71796259 1.07446041 -5.79410419 -0.03977646 0 0 Z " fill="#B3CBED" transform="translate(457.389404296875,309.659423828125)"/>
<path d="M0 0 C0.01981934 1.0194873 0.03963867 2.03897461 0.06005859 3.08935547 C0.13602808 6.86532648 0.22475809 10.64090773 0.31738281 14.41650391 C0.35570852 16.0518424 0.39055507 17.68726624 0.421875 19.32275391 C0.46744842 21.6712091 0.52545367 24.01907495 0.5859375 26.3671875 C0.59748871 27.10057343 0.60903992 27.83395935 0.62094116 28.58956909 C0.61868097 32.74977105 0.61868097 32.74977105 3 36 C3.24291992 39.05688477 3.24291992 39.05688477 3.23046875 42.94140625 C3.22978142 43.96571999 3.22978142 43.96571999 3.2290802 45.01072693 C3.22605891 46.45402769 3.21817622 47.89732522 3.20581055 49.34057617 C3.1875433 51.55724553 3.18530093 53.77349758 3.18554688 55.99023438 C3.14742468 66.85257532 3.14742468 66.85257532 2 68 C-0.16480797 68.0989294 -2.33293785 68.129711 -4.5 68.125 C-5.6859375 68.12757813 -6.871875 68.13015625 -8.09375 68.1328125 C-11 68 -11 68 -12 67 C-12.1007812 64.63601532 -12.13973215 62.30188689 -12.1328125 59.9375 C-12.13376923 59.23101318 -12.13472595 58.52452637 -12.13571167 57.79663086 C-12.13639333 56.30029207 -12.13454005 54.80395033 -12.13037109 53.30761719 C-12.12502257 51.00969843 -12.13031651 48.71197514 -12.13671875 46.4140625 C-12.13605797 44.96354123 -12.1347768 43.51302009 -12.1328125 42.0625 C-12.13483673 41.3708374 -12.13686096 40.6791748 -12.13894653 39.96655273 C-12.11495224 35.11495224 -12.11495224 35.11495224 -11 34 C-11.02269287 31.99489598 -11.10793889 29.99044957 -11.21875 27.98828125 C-11.26257813 26.75529297 -11.30640625 25.52230469 -11.3515625 24.25195312 C-11.44983762 21.64378319 -11.57962373 19.03659387 -11.7421875 16.43164062 C-11.9937914 7.12713494 -11.9937914 7.12713494 -9.03125 3.76708984 C-3.5051517 0 -3.5051517 0 0 0 Z " fill="#043F7B" transform="translate(420,348)"/>
<path d="M0 0 C3.3 0 6.6 0 10 0 C10 23.76 10 47.52 10 72 C6.7 72 3.4 72 0 72 C0 48.24 0 24.48 0 0 Z " fill="#005AAF" transform="translate(251,94)"/>
<path d="M0 0 C1.03755432 0.00565979 2.07510864 0.01131958 3.144104 0.01715088 C6.45591492 0.03953009 9.76664144 0.08973081 13.078125 0.140625 C15.32420312 0.16068794 17.57029821 0.17893906 19.81640625 0.1953125 C25.32068209 0.23939982 30.82432607 0.30632759 36.328125 0.390625 C33.25295416 10.94871156 33.25295416 10.94871156 31.328125 15.390625 C25.70476564 15.44008621 20.0815331 15.47637368 14.45800781 15.50048828 C12.54522496 15.5105419 10.63245745 15.52418673 8.71972656 15.54150391 C5.96936248 15.56578022 3.21920172 15.5771145 0.46875 15.5859375 C-0.38555603 15.59626007 -1.23986206 15.60658264 -2.12005615 15.61721802 C-3.32084808 15.61744461 -3.32084808 15.61744461 -4.54589844 15.61767578 C-5.59846832 15.62433762 -5.59846832 15.62433762 -6.67230225 15.63113403 C-9.08005104 15.3415295 -10.62097952 14.67941547 -12.671875 13.390625 C-14.99936845 9.89938483 -15.17486816 8.49840249 -14.671875 4.390625 C-11.20781721 -1.14338812 -5.83362264 -0.11954862 0 0 Z " fill="#B4CCED" transform="translate(462.671875,337.609375)"/>
<path d="M0 0 C4.62 0 9.24 0 14 0 C14 15.51 14 31.02 14 47 C9.38 47 4.76 47 0 47 C0 31.49 0 15.98 0 0 Z " fill="#FFC143" transform="translate(91,297)"/>
<path d="M0 0 C4.62 0 9.24 0 14 0 C14 15.51 14 31.02 14 47 C9.38 47 4.76 47 0 47 C0 31.49 0 15.98 0 0 Z " fill="#FFB509" transform="translate(391,180)"/>
<path d="M0 0 C4.62 0 9.24 0 14 0 C14 15.51 14 31.02 14 47 C9.38 47 4.76 47 0 47 C0 31.49 0 15.98 0 0 Z " fill="#FFB509" transform="translate(91,180)"/>
<path d="M0 0 C0.79481277 0.00424484 1.58962555 0.00848969 2.40852356 0.01286316 C4.94587146 0.02964945 7.48242363 0.06730051 10.01953125 0.10546875 C11.7402229 0.1205157 13.46092701 0.13420409 15.18164062 0.14648438 C19.39874387 0.17955268 23.61525267 0.2313338 27.83203125 0.29296875 C26.62515792 4.1842893 25.23933367 7.63818033 23.20703125 11.16796875 C22.53800781 12.33972656 22.53800781 12.33972656 21.85546875 13.53515625 C21.51773438 14.11523438 21.18 14.6953125 20.83203125 15.29296875 C16.2698666 15.4382891 11.70829763 15.52705352 7.14453125 15.60546875 C5.20416992 15.66831055 5.20416992 15.66831055 3.22460938 15.73242188 C1.35385742 15.7565918 1.35385742 15.7565918 -0.5546875 15.78125 C-1.70155029 15.80743408 -2.84841309 15.83361816 -4.0300293 15.8605957 C-8.15364297 15.11466854 -9.63496385 13.56569288 -12.16796875 10.29296875 C-12.16796875 6.86804233 -11.94026502 4.535561 -10.1159668 1.6003418 C-6.99189977 -0.49633434 -3.63097833 -0.07282846 0 0 Z " fill="#B3CBED" transform="translate(460.16796875,364.70703125)"/>
<path d="M0 0 C9.9 0 19.8 0 30 0 C30 5.28 30 10.56 30 16 C20.1 16 10.2 16 0 16 C0 10.72 0 5.44 0 0 Z " fill="#FFCD6C" transform="translate(91,271)"/>
<path d="M0 0 C9.9 0 19.8 0 30 0 C30 5.28 30 10.56 30 16 C20.1 16 10.2 16 0 16 C0 10.72 0 5.44 0 0 Z " fill="#FFC144" transform="translate(391,154)"/>
<path d="M0 0 C9.9 0 19.8 0 30 0 C30 5.28 30 10.56 30 16 C20.1 16 10.2 16 0 16 C0 10.72 0 5.44 0 0 Z " fill="#FFC144" transform="translate(91,154)"/>
<path d="M0 0 C23.90733553 -0.66614867 45.89769403 2.97674224 69 9 C69 9.33 69 9.66 69 10 C47.88 10 26.76 10 5 10 C4.67 7.36 4.34 4.72 4 2 C2.07935207 0.4100567 2.07935207 0.4100567 0 0 Z " fill="#2CD1E2" transform="translate(258,0)"/>
<path d="M0 0 C0 10.89 0 21.78 0 33 C-4.95 33.495 -4.95 33.495 -10 34 C-10.43014719 29.46219335 -10.75558815 24.92267193 -11.0625 20.375 C-11.2471582 18.44720703 -11.2471582 18.44720703 -11.43554688 16.48046875 C-11.99193454 7.1428323 -11.99193454 7.1428323 -9.05810547 3.76269531 C-3.53793724 0 -3.53793724 0 0 0 Z " fill="#055DB0" transform="translate(420,348)"/>
<path d="M0 0 C4.62 0 9.24 0 14 0 C14 5.28 14 10.56 14 16 C9.38 16 4.76 16 0 16 C0 10.72 0 5.44 0 0 Z " fill="#FFC144" transform="translate(91,271)"/>
<path d="M0 0 C4.62 0 9.24 0 14 0 C14 5.28 14 10.56 14 16 C9.38 16 4.76 16 0 16 C0 10.72 0 5.44 0 0 Z " fill="#FFB50B" transform="translate(391,154)"/>
<path d="M0 0 C4.62 0 9.24 0 14 0 C14 5.28 14 10.56 14 16 C9.38 16 4.76 16 0 16 C0 10.72 0 5.44 0 0 Z " fill="#FFB50B" transform="translate(91,154)"/>
<path d="M0 0 C6.56036984 0.57966802 12.30180554 2.75113559 18.4375 5.0625 C19.45521484 5.43955078 20.47292969 5.81660156 21.52148438 6.20507812 C24.01670181 7.13053436 26.50936119 8.06230651 29 9 C29 9.33 29 9.66 29 10 C20.42 10 11.84 10 3 10 C2.67 7.69 2.34 5.38 2 3 C1.34 2.01 0.68 1.02 0 0 Z " fill="#2CD1E2" transform="translate(327,10)"/>
</svg>
